<svg xmlns="http://www.w3.org/2000/svg" width="177.204" height="115.691" viewBox="0 0 177.204 115.691">
  <g id="Group_62" data-name="Group 62" transform="translate(-1302.342 -2407.6) rotate(9)">
    <circle id="Ellipse_48" data-name="Ellipse 48" cx="8.5" cy="8.5" r="8.5" transform="translate(1677 2172)" fill="rgba(216,216,216,0.65)"/>
    <circle id="Ellipse_48-2" data-name="Ellipse 48" cx="8.5" cy="8.5" r="8.5" transform="translate(1714 2172)" fill="rgba(216,216,216,0.65)"/>
    <circle id="Ellipse_48-3" data-name="Ellipse 48" cx="8.5" cy="8.5" r="8.5" transform="translate(1751 2172)" fill="rgba(216,216,216,0.65)"/>
    <circle id="Ellipse_48-4" data-name="Ellipse 48" cx="8.5" cy="8.5" r="8.5" transform="translate(1788 2172)" fill="rgba(216,216,216,0.65)"/>
    <circle id="Ellipse_48-5" data-name="Ellipse 48" cx="8.5" cy="8.5" r="8.5" transform="translate(1825 2172)" fill="rgba(216,216,216,0.65)"/>
    <circle id="Ellipse_48-6" data-name="Ellipse 48" cx="8.5" cy="8.5" r="8.5" transform="translate(1677 2209)" fill="rgba(216,216,216,0.65)"/>
    <circle id="Ellipse_48-7" data-name="Ellipse 48" cx="8.5" cy="8.5" r="8.5" transform="translate(1714 2209)" fill="rgba(216,216,216,0.65)"/>
    <circle id="Ellipse_48-8" data-name="Ellipse 48" cx="8.5" cy="8.5" r="8.5" transform="translate(1751 2209)" fill="rgba(216,216,216,0.65)"/>
    <circle id="Ellipse_48-9" data-name="Ellipse 48" cx="8.5" cy="8.5" r="8.5" transform="translate(1788 2209)" fill="rgba(216,216,216,0.65)"/>
    <circle id="Ellipse_48-10" data-name="Ellipse 48" cx="8.5" cy="8.5" r="8.5" transform="translate(1825 2209)" fill="rgba(216,216,216,0.65)"/>
    <circle id="Ellipse_48-11" data-name="Ellipse 48" cx="8.5" cy="8.5" r="8.5" transform="translate(1677 2246)" fill="rgba(216,216,216,0.65)"/>
    <circle id="Ellipse_48-12" data-name="Ellipse 48" cx="8.5" cy="8.5" r="8.5" transform="translate(1714 2246)" fill="rgba(216,216,216,0.65)"/>
    <circle id="Ellipse_48-13" data-name="Ellipse 48" cx="8.5" cy="8.5" r="8.5" transform="translate(1751 2246)" fill="rgba(216,216,216,0.65)"/>
    <circle id="Ellipse_48-14" data-name="Ellipse 48" cx="8.5" cy="8.5" r="8.5" transform="translate(1788 2246)" fill="rgba(216,216,216,0.65)"/>
    <circle id="Ellipse_48-15" data-name="Ellipse 48" cx="8.5" cy="8.5" r="8.5" transform="translate(1825 2246)" fill="rgba(216,216,216,0.65)"/>
  </g>
</svg>
