<svg id="_1828391" data-name="1828391" xmlns="http://www.w3.org/2000/svg" width="20.836" height="19.931" viewBox="0 0 20.836 19.931">
  <path id="Path_234" data-name="Path 234" d="M13.815,220.359H.679a.679.679,0,0,1,0-1.359H13.815a.679.679,0,0,1,0,1.359Zm0,0" transform="translate(0 -209.714)" fill="#fff"/>
  <path id="Path_235" data-name="Path 235" d="M224.683,142.237a.68.68,0,0,1-.48-1.161l3.144-3.143-3.144-3.144a.68.68,0,0,1,.961-.961l3.624,3.624a.68.68,0,0,1,0,.961l-3.624,3.624A.674.674,0,0,1,224.683,142.237Zm0,0" transform="translate(-214.491 -127.969)" fill="#fff"/>
  <path id="Path_236" data-name="Path 236" d="M45.794,20.263a9.914,9.914,0,0,1-9.275-6.32.679.679,0,1,1,1.265-.5,8.606,8.606,0,1,0,0-6.3.679.679,0,1,1-1.265-.5,9.965,9.965,0,1,1,9.275,13.611Zm0,0" transform="translate(-34.923 -0.333)" fill="#fff"/>
</svg>
