<svg xmlns="http://www.w3.org/2000/svg" xmlns:xlink="http://www.w3.org/1999/xlink" width="822.78" height="1092.864" viewBox="0 0 822.78 1092.864">
  <defs>
    <linearGradient id="linear-gradient" x1="0.5" y1="1" x2="0.5" gradientUnits="objectBoundingBox">
      <stop offset="0" stop-color="gray" stop-opacity="0.251"/>
      <stop offset="0.54" stop-color="gray" stop-opacity="0.122"/>
      <stop offset="1" stop-color="gray" stop-opacity="0.102"/>
    </linearGradient>
  </defs>
  <g id="Group_57" data-name="Group 57" transform="translate(-951 -208)">
    <ellipse id="Ellipse_41" data-name="Ellipse 41" cx="76.287" cy="19.443" rx="76.287" ry="19.443" transform="translate(1565.616 892.406)" fill="#63b6ff" opacity="0.1"/>
    <path id="Path_251" data-name="Path 251" d="M99.253-4.07c58.425,0,112.321,21.057,112.321,42.013,0,14.333-55.165,33.325-55.165,33.325s-32.16,4.618-50.622,4.618C47.362,75.886,0,58.9,0,37.943S40.829-4.07,99.253-4.07Z" transform="translate(1367.616 1000.406)" fill="#63b6ff" opacity="0.1"/>
    <g id="Group_56" data-name="Group 56">
      <path id="Path_31" data-name="Path 31" d="M829.041,205c-.133.623-.259,1.245-.406,1.861a200.155,200.155,0,0,1-23.245,60.295c-.371.623-.742,1.246-1.119,1.868a173.263,173.263,0,0,1-26.2,33.076c-5.556,5.486-11.615,10.7-18.822,14.456-10.1,5.276-21.9,7.417-33.5,9.166-12.049,1.826-24.266,3.352-36.449,5q-6.494.861-12.91,1.826c-11.769,1.742-23.455,3.757-34.86,6.43a204.374,204.374,0,0,0-40.675,13.687q-1.546.7-3.058,1.483c-1.008.5-2.022,1.015-3.016,1.532s-1.973,1.036-2.946,1.567c-.5.273-1.008.546-1.5.833s-.987.539-1.469.819c-1.456.812-2.883,1.644-4.31,2.484l-.056.035c-.945.553-1.875,1.12-2.8,1.686-5.276,3.2-10.44,6.549-15.6,9.915l-3.247,2.1-5.031,3.254c-.979.637-1.98,1.274-2.967,1.9-.7.462-1.4.924-2.162,1.4-3.667,2.309-7.382,4.576-11.2,6.738-.9.518-1.812,1.036-2.729,1.539a155.083,155.083,0,0,1-24.084,10.86l-.112.042a109.839,109.839,0,0,1-12.791,3.611c-2.5.546-5,.994-7.536,1.337a80.8,80.8,0,0,1-20.432.287c-13.344-1.546-25.848-6.668-39.184-8.4-27.457-3.5-54.123,7.774-79.943,16.6q-9.523,3.254-19.186,6.095c-4.282,1.267-8.578,2.463-12.91,3.617a485.774,485.774,0,0,1-80.957,14.2,228,228,0,0,1-34.391.763,126.242,126.242,0,0,1-12.9-1.4c-14.484-2.239-27.989-6.934-38.89-15.534-8.928-7.06-15.317-16.261-20.18-25.89a112.977,112.977,0,0,1-10.433-31.165c-.266-1.476-.5-2.96-.7-4.443q-.525-3.806-.784-7.655a109.569,109.569,0,0,1,4.814-40.479c4.618-14.638,12.315-28.689,15.7-43.439q.21-.938.4-1.868a64.676,64.676,0,0,0,1.029-6.78c1.728-18.123-4.9-35.791-10.1-53.515-.182-.616-.364-1.238-.539-1.861q-.84-2.953-1.609-5.9c-4.814-18.739-6.151-38.8-1.861-57.5.133-.623.294-1.245.448-1.861a84.19,84.19,0,0,1,15.828-32.418c8.033-10.076,18.577-18.466,29.843-25.834q8.236-5.388,17.031-10.069,6.3-3.359,12.9-6.36A254.106,254.106,0,0,1,322.619,42.779c2.1.091,4.2.2,6.3.357s4.394.336,6.591.539c25.652,2.491,50.611,8.5,75.395,15.072,8.306,2.2,16.6,4.464,24.882,6.682,3.688.98,7.368,1.959,11.056,2.911,18.06,4.667,36.385,8.893,54.942,12.049q6.444,1.113,12.9,2.029a369.6,369.6,0,0,0,45.125,3.827q8.81.175,17.626-.154,4.45-.161,8.907-.483c30.683-2.162,60.337-9.4,90.04-16.157q6.444-1.469,12.91-2.9c5.654-1.245,11.307-2.449,16.989-3.562,35.357-6.948,66.872-2.953,99.745,11.384,7.473,3.254,14.939,7.186,19.515,13.295s5.724,13.61,6.577,20.852c1.211,10.314,2,20.761,2.3,31.263,0,.616,0,1.239.042,1.861A280.616,280.616,0,0,1,829.041,205Z" transform="translate(935.02 211.075)" fill="#63acff" opacity="0.1"/>
      <path id="Path_32" data-name="Path 32" d="M597.983,267.286h-2.309v1.868h2.617Zm-26.191,0a.119.119,0,0,0,0,.049c-.063.511-.133,1.022-.2,1.539v.28H591.6v-.112l1.4-1.756Zm-53.633,0V206.991H541.18c-.245-.161-.5-.329-.756-.483l-.336-.217-.434-.266c-.252-.147-.5-.294-.77-.434s-.427-.238-.651-.357l-.154-.084H518.159v-3.324l-.539.21-.567.266h-.042l-.119.063-.357.189-.357.189c-.35.189-.7.4-1.05.616l-.336.224-.7.448c-.9.6-1.791,1.232-2.708,1.819-.231.147-.462.294-.7.427-.5.294-1.008.574-1.533.826a5.841,5.841,0,0,1-.7.3l-.378.147-.35.119h0a16.392,16.392,0,0,1-2.519.658v58.944H470.69c0,.07.049.126.07.2.189.56.378,1.113.56,1.672h33.936v64.626h.525l.609.035,1.1.063,1.756.21.8.077.875.091h.133l1.546.189.329.042.749.1,1.071.154h0l2.568-.112h0l.35.063a2.426,2.426,0,0,1,.434.07v-65.6H571.52v-.28c.07-.518.14-1.029.2-1.539a.125.125,0,0,1,0-.049Zm79.824,0h-2.309v1.868h2.617Zm-27.632,0c-.084.623-.161,1.246-.245,1.868h22.314l1.518-1.868Zm-52.192,0V206.991H541.18c-.245-.161-.5-.329-.756-.483l-.336-.217-.434-.266c-.252-.147-.5-.294-.77-.434s-.427-.238-.651-.357l-.154-.084H518.16v-3.324l-.539.21-.567.266h-.042l-.119.063-.357.189-.357.189c-.35.189-.7.4-1.05.616l-.336.224-.7.448c-.9.6-1.791,1.232-2.708,1.819-.231.147-.462.294-.7.427-.5.294-1.008.574-1.532.826a5.846,5.846,0,0,1-.7.3l-.378.147-.35.119h0a16.391,16.391,0,0,1-2.519.658v58.944H470.69c0,.07.049.126.07.2.189.553.385,1.113.567,1.672h33.929V333.76h.525l.609.035,1.1.063,1.756.217.8.077.875.091h.133l1.546.189.329.042.749.1,1.071.154h0l2.568-.112h0l.35.063a2.426,2.426,0,0,1,.434.07v-65.6h52.017c.084-.623.161-1.245.245-1.868ZM692.768,141.728H837.938c0-.623,0-1.245-.042-1.861H692.768v-73.2q-6.465,1.4-12.91,2.9v70.308H521.973l-.4-.357.6-.532h0L580.9,86.206q-8.816.336-17.626.154L518.152,126.9V82.546q-6.465-.917-12.9-2.029v44.341l-65.977-59.3c-8.285-2.218-16.576-4.478-24.882-6.682l89.725,80.636-.4.357H339v-96q-3.3-.308-6.591-.539c-2.1-.154-4.2-.266-6.3-.357v96.9H210.7V65.186q-6.535,2.995-12.9,6.36v68.321H135.1c-.154.616-.315,1.239-.448,1.861H197.8v63.4H138.121c.175.623.357,1.245.539,1.861H197.8v60.295H147.728q-.189.931-.4,1.868H197.8V437.738c4.2.651,8.544,1.106,12.9,1.4V269.154H326.093V424.163c4.331-1.154,8.628-2.351,12.91-3.618V269.154H505.257V404.585a109.794,109.794,0,0,0,12.791-3.611l.112-.042V269.154h161.7v63.521q6.437-.945,12.91-1.812V269.154H807.745c.378-.623.749-1.245,1.119-1.868h-116.1V206.991H832.11c.147-.616.273-1.238.406-1.861H692.768Zm-482.065,0H326.093v63.4H210.7Zm0,125.558V206.991H326.093v60.295ZM339,141.728H505.257v63.4H339Zm0,125.558V206.991H505.257v60.295Zm340.854,0h-161.7V206.991h161.7Zm0-62.156h-161.7v-61.7l2.267-1.7H679.858ZM571.793,267.286a.119.119,0,0,0,0,.049c-.063.511-.133,1.022-.2,1.539v.28H591.6v-.112l1.4-1.756Zm26.191,0h-2.309v1.868h2.617Zm-79.824,0V206.991H541.18c-.245-.161-.5-.329-.756-.483l-.336-.217-.434-.266c-.252-.147-.5-.294-.77-.434s-.427-.238-.651-.357l-.154-.084H518.159v-3.324l-.539.21-.567.266h-.042l-.119.063-.357.189-.357.189c-.35.189-.7.4-1.05.616l-.336.224-.7.448c-.9.6-1.791,1.232-2.708,1.819-.231.147-.462.294-.7.427-.5.294-1.008.574-1.533.826a5.841,5.841,0,0,1-.7.3l-.378.147-.35.119h0a16.392,16.392,0,0,1-2.519.658v58.944H470.69c0,.07.049.126.07.2.189.56.378,1.113.56,1.672h33.936v64.626h.525l.609.035,1.1.063,1.756.21.8.077.875.091h.133l1.546.189.329.042.749.1,1.071.154h0l2.568-.112h0l.35.063a2.426,2.426,0,0,1,.434.07v-65.6H571.52v-.28c.07-.518.14-1.029.2-1.539a.125.125,0,0,1,0-.049Z" transform="translate(931.546 210.947)" fill="#6c63ff" opacity="0.1"/>
      <path id="Path_33" data-name="Path 33" d="M320.8,120.027h1a2.029,2.029,0,0,1-1.225-1.63h0c0-1.287,1.924-2.337,4.275-2.337h29.92c2.351,0,4.268,1.05,4.268,2.337h0c0,1.281-1.917,2.337-4.268,2.337h-1a2.008,2.008,0,0,1,1.225,1.623c0,1.1-1.4,2.022-3.268,2.267h8.613c2.344,0,4.268,1.05,4.268,2.337s-1.924,2.337-4.268,2.337H330.412c-2.344,0-4.268-1.057-4.268-2.337,0-1.1,1.4-2.015,3.268-2.267H320.8c-2.351,0-4.268-1.05-4.268-2.337S318.447,120.027,320.8,120.027Z" transform="translate(876.931 188.999)" fill="#6c63ff" opacity="0.1"/>
      <path id="Path_34" data-name="Path 34" d="M784.238,151.8h1a2.029,2.029,0,0,1-1.217-1.63h0c0-1.287,1.917-2.337,4.268-2.337h29.92c2.351,0,4.275,1.05,4.275,2.337h0c0,1.28-1.924,2.33-4.275,2.33h-.994a2.029,2.029,0,0,1,1.218,1.63c0,1.1-1.4,2.022-3.268,2.267h8.614c2.351,0,4.268,1.05,4.268,2.337s-1.917,2.337-4.268,2.337h-29.92c-2.351,0-4.275-1.057-4.275-2.337,0-1.1,1.4-2.022,3.268-2.267h-8.614c-2.344,0-4.268-1.05-4.268-2.337S781.894,151.8,784.238,151.8Z" transform="translate(737.769 179.459)" fill="#6c63ff" opacity="0.1"/>
      <path id="Path_35" data-name="Path 35" d="M255.165,287.757h.994a2.022,2.022,0,0,1-1.217-1.63h0c0-1.281,1.924-2.337,4.268-2.337h29.927c2.344,0,4.268,1.057,4.268,2.337h0c0,1.288-1.924,2.337-4.268,2.337h-1a2,2,0,0,1,1.217,1.623c0,1.1-1.4,2.022-3.268,2.267H294.7c2.351,0,4.275,1.057,4.275,2.337s-1.924,2.337-4.275,2.337H264.807c-2.351,0-4.268-1.049-4.268-2.337,0-1.092,1.4-2.015,3.268-2.267h-8.642c-2.351,0-4.275-1.049-4.275-2.337S252.842,287.757,255.165,287.757Z" transform="translate(896.641 138.633)" fill="#6c63ff" opacity="0.1"/>
      <ellipse id="Ellipse_7" data-name="Ellipse 7" cx="45.454" cy="149.579" rx="45.454" ry="149.579" transform="translate(1412.984 660.373) rotate(-78.45)" fill="#6c63ff" opacity="0.1"/>
      <path id="Path_36" data-name="Path 36" d="M828.56,405.282s7.956-39.051,38.331-35.434c0,0,20.992,1.441,25.309,15.184v30.375Z" transform="translate(723.178 112.863)" fill="#3a3768"/>
      <path id="Path_37" data-name="Path 37" d="M881.2,395.936,610.713,373.51,576,380.745l2.169,48.456,2.365.287,2.694,72.764,265.425,47.728,28.213-23.867v-78.88l3.611-2.12Z" transform="translate(836.879 136.679)" fill="#ee708d"/>
      <path id="Path_38" data-name="Path 38" d="M999.662,405.56l-.728,49.176-29.29,13.742-.364-51.352Z" transform="translate(718.785 127.055)" opacity="0.05"/>
      <path id="Path_39" data-name="Path 39" d="M994.029,478.94l.357,77.389L966.18,580.2l1.813-89.683Z" transform="translate(719.716 105.021)" opacity="0.05"/>
      <path id="Path_40" data-name="Path 40" d="M582.913,456.593l270.148,32.964.14-6.255L582.71,454.13Z" transform="translate(834.864 112.47)" opacity="0.05"/>
      <path id="Path_41" data-name="Path 41" d="M994.494,481.781V478.94L967.73,490.751v6.269Z" transform="translate(719.25 105.021)" opacity="0.05"/>
      <path id="Path_42" data-name="Path 42" d="M575.48,380.745l34.713-7.235,270.491,22.426L850.309,407.5Z" transform="translate(837.035 136.679)" fill="#efc6cd"/>
      <path id="Path_43" data-name="Path 43" d="M961.928,407.55l13.274.868L953.2,415l-11.2-.8Z" transform="translate(726.976 126.458)" opacity="0.1"/>
      <path id="Path_44" data-name="Path 44" d="M961.928,406.72l13.274.868-22,6.591-11.2-.812Z" transform="translate(726.976 126.707)" fill="#fff"/>
      <path id="Path_45" data-name="Path 45" d="M1022.32,444.533c.525-.224,1.077.2,1.637.308.322.063.651,0,.973.063.651.084,1.294.518,1.917.3" transform="translate(664.996 90.385)" fill="#d3dae1"/>
      <path id="Path_46" data-name="Path 46" d="M1021.34,445.1c.518-.224,1.077.2,1.637.308.322.056.651,0,.972.056.651.091,1.294.525,1.917.308" transform="translate(665.29 90.214)" fill="#d3dae1"/>
      <path id="Path_47" data-name="Path 47" d="M1019.08,446.242c.525-.224,1.085.2,1.645.3.315.063.651,0,.965.063.658.091,1.3.525,1.917.3" transform="translate(665.969 89.872)" fill="#d3dae1"/>
      <path id="Path_48" data-name="Path 48" d="M879.928,398.21l13.274.875-22,6.584-11.2-.812Z" transform="translate(751.599 129.262)" opacity="0.1"/>
      <path id="Path_49" data-name="Path 49" d="M879.928,397.39l13.274.868-22,6.584-11.2-.8Z" transform="translate(751.599 129.508)" fill="#fff"/>
      <path id="Path_50" data-name="Path 50" d="M940.32,435.2c.525-.224,1.078.2,1.638.308.322.056.651,0,.973.056.65.091,1.294.525,1.917.308" transform="translate(689.619 93.187)" fill="#d3dae1"/>
      <path id="Path_51" data-name="Path 51" d="M939.34,435.772c.518-.224,1.078.2,1.637.3.322.063.651,0,.973.063.651.091,1.294.525,1.917.3" transform="translate(689.914 93.016)" fill="#d3dae1"/>
      <path id="Path_52" data-name="Path 52" d="M937.08,436.9c.525-.224,1.085.2,1.645.308.315.063.65,0,.965.063.658.084,1.3.525,1.917.3" transform="translate(690.592 92.676)" fill="#d3dae1"/>
      <path id="Path_53" data-name="Path 53" d="M919.258,402.88l13.281.868-22,6.591-11.21-.812Z" transform="translate(739.79 127.86)" opacity="0.1"/>
      <path id="Path_54" data-name="Path 54" d="M919.258,402.06l13.281.868-22,6.584-11.21-.812Z" transform="translate(739.79 128.106)" fill="#fff"/>
      <path id="Path_55" data-name="Path 55" d="M979.65,439.872c.525-.224,1.085.2,1.644.3.315.063.644,0,.966.063.651.084,1.3.525,1.917.3" transform="translate(677.809 91.784)" fill="#d3dae1"/>
      <path id="Path_56" data-name="Path 56" d="M978.67,440.432c.525-.224,1.084.2,1.644.308.315.063.644,0,.966.063.651.084,1.3.525,1.917.3" transform="translate(678.104 91.616)" fill="#d3dae1"/>
      <path id="Path_57" data-name="Path 57" d="M976.42,441.572c.518-.224,1.078.2,1.638.308.322.056.651,0,.973.056.651.091,1.294.525,1.917.308" transform="translate(678.779 91.274)" fill="#d3dae1"/>
      <ellipse id="Ellipse_8" data-name="Ellipse 8" cx="141.679" cy="29.164" rx="141.679" ry="29.164" transform="translate(1216.846 744.252)" fill="#63b6ff" opacity="0.1"/>
      <path id="Path_58" data-name="Path 58" d="M658.1,378.626c-1.511-13.281-7.494-25.953-7.494-25.953l.455-4.478s.1-2.239-.049-5.6a25.473,25.473,0,0,1,.819-6.214c1.225-3.883-1.533-8.655-1.84-9.1s.154-8.956-2.6-13.134-21.118-11.944-21.118-11.944-.986-2.064-2.379-4.478l.126-.245a26.309,26.309,0,0,0-4.2-5.661c-1.126-1.2-2.211-1.889-3.086-1.553a25.128,25.128,0,0,1-.812-3.548c.182.049.371.1.553.133a5.708,5.708,0,0,0,2.309.056c1.707-.385,2.841-1.917,3.793-3.359,4.744-7.207,8.83-15.114,9.663-23.644a15.031,15.031,0,0,0-.245-5.22,17.607,17.607,0,0,0-1.637-3.814,30.649,30.649,0,0,0-4.618-6.808c-3.268-3.443-7.774-5.549-12.406-6.794a42.947,42.947,0,0,0-16.024-1.2c-1.4.161-2.8.392-4.2.483a43.606,43.606,0,0,1-5.325-.091l-9.159-.532-.042-.14-1.525-.091c-.6,1.2,0,2.617.749,3.737s1.609,2.288,1.546,3.611-1.022,2.386-1.77,3.5-1.315,2.568-.567,3.66a2.094,2.094,0,0,0,.371.406c.791.819,2.169.91,3.366.9h.21a22.789,22.789,0,0,0-4.639,13.8,23.2,23.2,0,0,0,12.658,20.558c.133.455.266.924.392,1.4a42.864,42.864,0,0,1,1.47,15.128l-.161.35-.1-.371s-10.79,7.319-13.994,9.257-6.423,8.509-6.577,10.3-5.206,28.807-5.206,28.807a66.216,66.216,0,0,0-2.533,8.341l-6.445,5.661s-13.295,1.2-17.143.3l.112.742a58.152,58.152,0,0,0-10.328-1.4,10.951,10.951,0,0,0-5.6.749l-.133.063-.1.049a22.183,22.183,0,0,0-5.878,1.651c-.224.091-.427.182-.623.273l.042-.917-14.386-.742-7.347-1.49s-2.6-2.1-4.135-1.791-4.744-1.791-4.744-1.791a12.83,12.83,0,0,0-2.365-1.469c-.245-1.693-.4-2.722-.4-2.722s-5.717-22.685-10-36.022c-2.869-8.908-7-13.295-9.432-15.2-1.085-1.889-1.8-3.107-1.8-3.107-.469-1.637-3.044-5.325-3.7-5.416-.1-.168-.182-.252-.224-.252a.819.819,0,0,0-.413.063c-1.2-5.99-1.9-13.5-.063-20.04a22.118,22.118,0,0,0,8.075-17.045q0-.147,0-.294v-.3a22.02,22.02,0,0,0-5.2-14.2l-.238-.266a1.864,1.864,0,0,0,.182-.147,3.751,3.751,0,0,0,1.322-3.611c-.315-1.343-1.364-2.4-1.9-3.674a23.769,23.769,0,0,1-.777-2.995,9.236,9.236,0,0,0-2.2-3.841l.105.28a13.3,13.3,0,0,0-11.706-3.932c-3.156.5-6.094,1.973-9.264,2.428-2.274.322-4.59.112-6.878.343a17.851,17.851,0,0,0-6.1,1.763,3.5,3.5,0,0,0-1.294.952,5.125,5.125,0,0,0-.644,1.8c-.777,2.834-3.24,4.856-5.024,7.221a16.9,16.9,0,0,0-3.387,9.334,7.3,7.3,0,0,0,.245,2.554c.154.5.392.966.5,1.469.35,1.539-.455,3.072-.847,4.6a8.949,8.949,0,0,0,.5,5.836c2.764,6.185,11.839,8.25,13.729,14.743a18.046,18.046,0,0,0,4.541,1.4c.126.644.238,1.295.329,1.952a.531.531,0,0,0-.119.07c-2.449,2.386-3.058,7-3.058,7l-.294.238c-1,.826-4.422,3.6-7.515,5.731-3.674,2.54-9.8,11.049-14.078,13.588s-7.809,18.193-6.885,23.881,4.744,21.642,3.212,27.464,2.3,32.39,2.3,32.39a39.109,39.109,0,0,1,7.5,2.225l-.077,1.161-.231,3.5s-6.934,25.078-4.282,44.383-1.225,21.292-1.225,21.292.812,8.558-1.224,11.545-2.449,9.551-2.449,9.551-.2,14.729.2,18.892.609,11.748-.819,13.54-4.079,13.526-3.876,17.108-5.1,11.748-2.246,22.293-8.4,10.748-8.4,10.748,1.435,16.093,4.492,20.7l.448.658c-.077.266-.154.546-.238.847-1.155,4.2-2.736,10.825-1.637,12.427,1.63,2.393,2.449,1.987,2.449,1.987l.609,10.748s12.245,10.349,21.635,9.957,7.55-9.957,7.55-9.957l-8-20.74-.273-.7,8.887-16.793s2.449-7.361,3.058-9.95,3.933-11.763,3.933-11.763,8.4-19.9,8.571-22.293.819-15.317,2.449-17.913,6.122-17.493,6.122-17.493l.112.1a5.9,5.9,0,0,1,1.525,5.871c-1.029,3.778-.413,11.538-.413,11.538a78.488,78.488,0,0,1-1.225,9.957c-.819,3.387-1.015,31.047.413,37.61,1.14,5.255,1.106,15.093,1.049,18.815-.959,3.953-1.8,8.865-.238,9.446,2.659,1,16.129.8,16.129.8s5.71-1.994,13.47,4.975,31.627-1.987,31.627-1.987,7.347-1.994-7.144-7.76c-10.111-4.023-16.639-6.7-20.908-9.572.1-.189.2-.378.294-.581,0,0-5.92-5.6-1.022-15.52a43.218,43.218,0,0,0,4.7-18.312l.819-33.44-2.449-44.39-1.9-46.587.336-.112c.322,8.565,1.994,28.954,10.748,25,11.02-4.975,1.63-17.913,1.63-17.913l-4.947-9.642,1.476-.5-5.535-17.885a40.339,40.339,0,0,1-.21-10.545,41.779,41.779,0,0,0-.126-6.158c7.249-1.267,14.19-2.61,15.436-2.3,1.469.357,9.691.427,12.924.441-1.057.826-1.9,1.644-1.9,1.644l13.162,8.859s4.464-2.442,5.395-5.031a5.807,5.807,0,0,0,2.463-1.316c.14,3.058.952,6.367,3.779,6.444a4.9,4.9,0,0,0,2.057-.406l21.524-4.261-1.848,11.538,1.288,2.288c-.651,9.733-1.4,20.068-2.057,29.157l-.3,1.987.154.035c-1.022,13.994-1.84,24.6-1.84,24.6a12.9,12.9,0,0,1,5.367-5.395l.14,20.768s1.078,32.838,1.078,37.316.147,14.477.147,14.477,2.3,12.238,3.673,16.269,2.449,22.391,2.449,22.391,3.219,5.073,1.84,7,5.36,6.115,5.36,6.115-4.289,5.822-4.6,9.705c-.035.448.406.924,1.2,1.4-.252.2-.511.406-.8.6-1.987,1.329-4.9,2.253-9.278,1.875-11.944-1.05-20.362,10-13.015,12.238s29.388,2.687,29.388,2.687,6.675-4.163,11.9-2.288c-.077,4.38.14,8.4.175,8.928l-.063.049c-3.121,2.8-9.1,7.613-14.932,9.579-8.4,2.834-10.258,14.33.609,15.821s26.785-1.791,26.785-1.791,8.264-6.116,14.54-7.459,11.636-4.331,10.566-7.914c-.7-2.288-2.5-8.285-3.716-12.315q-.1-.364-.21-.7c.189-.42.378-.854.553-1.3,0,0-3.212-16.716-.609-20.894s1.225-45.979,1.225-45.979S621.5,526.413,623.8,520s-3.674-15.527-3.674-15.527.651-18.256,2.4-28.43q.119-.651.231-1.259a57.329,57.329,0,0,0,8.537-3.3s1.532-22.993,2.449-28.213c.091-.49.217-1.28.371-2.309l.7-3.688h0l.826-4.2h0l2.8-14.309,5.052-6.535,13.015-13.295S659.637,391.913,658.1,378.626ZM457.4,296.528l-.1.07a1.235,1.235,0,0,1-.035-.154A.627.627,0,0,0,457.4,296.528Zm128.588,16.3-.5,1.1,1.84-1.833-2.5,2.8.84-1.763ZM573.557,338.5c-.483,1.28-1,2.666-1.539,4.107l.987-2.946Z" transform="translate(855.569 155.963)" fill="url(#linear-gradient)"/>
      <path id="Path_59" data-name="Path 59" d="M595.822,444.691s-1.714,11.413,3.429,11.56,8.579-8.8,8.579-8.8l-2.1-7.158Z" transform="translate(793.147 91.64)" fill="#585b8a"/>
      <path id="Path_60" data-name="Path 60" d="M595.822,444.691s-1.714,11.413,3.429,11.56,8.579-8.8,8.579-8.8l-2.1-7.158Z" transform="translate(793.147 91.64)" opacity="0.2"/>
      <path id="Path_61" data-name="Path 61" d="M420.825,783.06c-9.152.4-21.09-9.943-21.09-9.943l-.595-10.741s-.791.4-2.386-1.987c-1.071-1.6.469-8.243,1.6-12.42.546-2.043.994-3.5.994-3.5l20.082,5.374.959,2.54,7.795,20.726S429.971,782.661,420.825,783.06Z" transform="translate(852.949 0.3)" fill="#636992"/>
      <path id="Path_62" data-name="Path 62" d="M537.228,746.34s-23.266,8.949-30.788,1.987-13.127-4.975-13.127-4.975-13.127.2-15.716-.8c-1.525-.581-.7-5.556.252-9.516.644-2.736,1.343-5,1.343-5s22.867-7.76,26.449-2.988a17.149,17.149,0,0,0,3.813,3.638c4.143,2.995,10.615,5.71,20.852,9.887C544.386,744.346,537.228,746.34,537.228,746.34Z" transform="translate(828.819 6.596)" fill="#636992"/>
      <path id="Path_63" data-name="Path 63" d="M530.866,496.35l6.36,12.728s9.152,12.931-1.589,17.9S525.1,498.344,525.1,498.344Z" transform="translate(814.302 74.806)" fill="#ffd6d6"/>
      <path id="Path_64" data-name="Path 64" d="M495.25,338.61s6.962,3.184,11.14,16.506,9.747,36,9.747,36,3.779,25.652,3.177,32.019a41.284,41.284,0,0,0,.2,10.538l5.367,17.9-10.741,3.779-16.506-63.241Z" transform="translate(823.265 122.172)" fill="#dce6f2"/>
      <path id="Path_65" data-name="Path 65" d="M495.25,338.61s6.962,3.184,11.14,16.506,9.747,36,9.747,36,3.779,25.652,3.177,32.019a41.284,41.284,0,0,0,.2,10.538l5.367,17.9-10.741,3.779-16.506-63.241Z" transform="translate(823.265 122.172)" opacity="0.05"/>
      <path id="Path_66" data-name="Path 66" d="M420.257,749.857l.959,2.54-1.176,2.246c-4.576,1.987-15.912.4-15.912.4s-2.1-2.666-4.968-7.053c.546-2.043.994-3.5.994-3.5Z" transform="translate(852.119 0.294)" opacity="0.1"/>
      <path id="Path_67" data-name="Path 67" d="M510.627,729.63c-5.8,13.141-25.519,8.264-31,6.619-.9-.273-1.4-.455-1.4-.455s.035-1.071.049-2.757c.644-2.736,1.344-5,1.344-5s22.867-7.76,26.449-2.988a17.148,17.148,0,0,0,3.813,3.639,6.758,6.758,0,0,0,.742.938Z" transform="translate(828.375 6.597)" opacity="0.1"/>
      <path id="Path_68" data-name="Path 68" d="M483.919,634.048c-4.772,9.936,1,15.513,1,15.513-5.8,13.134-25.519,8.264-31,6.612-.9-.266-1.4-.448-1.4-.448s.4-13.728-.994-20.292-1.2-34.2-.4-37.582a80.01,80.01,0,0,0,1.189-9.95s-.595-7.753.4-11.531a5.955,5.955,0,0,0-1.483-5.864l-.1-.1s-4.373,14.918-5.969,17.493-2.183,15.513-2.386,17.9-8.355,22.279-8.355,22.279-3.177,9.145-3.772,11.727-2.988,9.95-2.988,9.95l-9.586,18.5c-4.576,1.987-15.912.4-15.912.4s-2.183-2.8-5.171-7.361-4.373-20.677-4.373-20.677,10.937-.2,8.152-10.741,2.386-18.7,2.19-22.279,2.386-15.31,3.778-17.1,1.19-9.348.791-13.526-.2-18.893-.2-18.893.4-6.563,2.386-9.544,1.2-11.538,1.2-11.538,3.772-1.987,1.189-21.279,4.2-44.348,4.2-44.348l.231-3.5.364-5.668s56.88-3.583,61.456.791a15.085,15.085,0,0,1,2.9,4.163,41.43,41.43,0,0,1,3.289,10.587L486.935,538l2.386,44.348-.8,33.411A44.419,44.419,0,0,1,483.919,634.048Z" transform="translate(854.083 85.476)" fill="#1f274a"/>
      <path id="Path_69" data-name="Path 69" d="M491.9,538.42l-5.969,129.266-7.165,11.783c-.9-.266-1.4-.448-1.4-.448s.4-13.728-.994-20.292-1.2-34.2-.4-37.582a80.028,80.028,0,0,0,1.19-9.95s-.595-7.753.4-11.531a5.955,5.955,0,0,0-1.483-5.864l.1-.7Z" transform="translate(829.241 62.173)" opacity="0.1"/>
      <path id="Path_70" data-name="Path 70" d="M406.972,734.842s15.513-6.165,17.9-4.2-18.291,4.968-18.291,4.968Z" transform="translate(849.891 4.568)" opacity="0.1"/>
      <path id="Path_71" data-name="Path 71" d="M510.387,713.5c-.595.2-15.709,5.6-14.316,11.336S510.387,713.5,510.387,713.5Z" transform="translate(823.045 9.6)" opacity="0.1"/>
      <path id="Path_72" data-name="Path 72" d="M449.07,289.855s5.066,12.231,2.386,18.5,28.934,17,28.934,17-9.243-23.867-.294-37.3S449.07,289.855,449.07,289.855Z" transform="translate(837.132 139.012)" fill="#ffd6d6"/>
      <path id="Path_73" data-name="Path 73" d="M693.171,788.666C687.055,790.01,679,796.125,679,796.125s-15.513,3.282-26.106,1.792-8.8-12.98-.595-15.814c5.689-1.959,11.517-6.794,14.561-9.565,1.344-1.238,2.141-2.1,2.141-2.1l29.689-5.969s.483,1.658,1.154,3.947c1.19,4.037,2.946,10.027,3.618,12.308C704.506,784.342,699.286,787.323,693.171,788.666Z" transform="translate(778.135 -5.706)" fill="#505484"/>
      <path id="Path_74" data-name="Path 74" d="M676.241,756.545s-12.532,1.344-17.752-1.637S645.81,756.7,645.81,756.7s-21.481-.448-28.64-2.687,1.043-13.295,12.679-12.231c4.24.385,7.109-.546,9.047-1.875A9.53,9.53,0,0,0,642.836,734l25.19,1.49,3.5,8.928Z" transform="translate(787.458 3.444)" fill="#505484"/>
      <path id="Path_75" data-name="Path 75" d="M682.383,748.491s-29.276-4.786-33.013-8.586A9.53,9.53,0,0,0,653.31,734l25.19,1.49,3.5,8.928Z" transform="translate(776.985 3.444)" opacity="0.1"/>
      <path id="Path_76" data-name="Path 76" d="M634.52,514.5l.3,43.7s1.043,32.817,1.043,37.3.147,14.463.147,14.463,2.239,12.231,3.582,16.261,2.386,22.391,2.386,22.391,3.135,5.073,1.791,7,5.22,6.115,5.22,6.115-4.2,5.822-4.471,9.7,33.4,9.383,33.4,9.383L664.8,546.266,654.357,512.56Z" transform="translate(781.445 69.938)" fill="#575988"/>
      <path id="Path_77" data-name="Path 77" d="M634.52,514.5l.3,43.7s1.043,32.817,1.043,37.3.147,14.463.147,14.463,2.239,12.231,3.582,16.261,2.386,22.391,2.386,22.391,3.135,5.073,1.791,7,5.22,6.115,5.22,6.115-4.2,5.822-4.471,9.7,33.4,9.383,33.4,9.383L664.8,546.266,654.357,512.56Z" transform="translate(781.445 69.938)" opacity="0.1"/>
      <path id="Path_78" data-name="Path 78" d="M708.995,768.451c-9.747,23.237-32.929,5.3-32.929,5.3s0-.448-.056-1.218c1.344-1.238,2.141-2.1,2.141-2.1l29.689-5.969S708.323,766.163,708.995,768.451Z" transform="translate(768.986 -5.706)" opacity="0.1"/>
      <path id="Path_79" data-name="Path 79" d="M699.49,688.7c-9.551,24.49-33.265,6.115-33.265,6.115s-.749-12.679.749-18.493-1.644-23.273-1.644-23.273-1.791-15.513-3.429-19.088-1.49-10.741-1.49-11.336.595-5.374-.749-8.656-2.1-11.335-2.1-11.335,0-11.336-1.343-18.046L651.595,561.5l-8.355-47.287,2.61-.448,46.762-8.2s8.8,44.782,5.815,49.372a19.265,19.265,0,0,0-1.679,6.053c-1.707,10.16-2.344,28.4-2.344,28.4s5.815,9.1,3.582,15.513,2.1,17,2.1,17,1.343,41.766-1.2,45.944S699.49,688.7,699.49,688.7Z" transform="translate(778.826 72.04)" fill="#575988"/>
      <path id="Path_80" data-name="Path 80" d="M702.282,318.162s-42.361,29.829-32.817,14.911c5.143-8.033,4.2-18.263,2.183-25.987a61.322,61.322,0,0,0-4.2-11.4s35.993-15.31,31.221-1.588a25.708,25.708,0,0,0-1.4,9.964A26.59,26.59,0,0,0,702.282,318.162Z" transform="translate(771.556 137.253)" fill="#d28690"/>
      <path id="Path_81" data-name="Path 81" d="M598.825,427.571s-17.9-5.171-20.879-.1.9,16.205,6.3,18,17.8-6.067,17.8-6.067Z" transform="translate(798.744 96.157)" fill="#d28690"/>
      <path id="Path_82" data-name="Path 82" d="M626.5,416l-7.459,6.864s-12.98,1.19-16.709.294c0,0,3.436,22.972-1.49,25.806l30.13-6.116Z" transform="translate(791.558 98.933)" fill="#585b8a"/>
      <path id="Path_83" data-name="Path 83" d="M626.5,416l-7.459,6.864s-12.98,1.19-16.709.294c0,0,3.436,22.972-1.49,25.806l30.13-6.116Z" transform="translate(791.558 98.933)" opacity="0.1"/>
      <path id="Path_84" data-name="Path 84" d="M481.425,265.1a22.391,22.391,0,0,1-22.391,22.391c-11.489-5.521-22.391-10.013-22.391-22.391a22.391,22.391,0,1,1,44.747,0Z" transform="translate(840.869 151.234)" opacity="0.1"/>
      <path id="Path_85" data-name="Path 85" d="M481.467,264.645a22.349,22.349,0,1,1-5.066-14.155A22.349,22.349,0,0,1,481.467,264.645Z" transform="translate(840.826 151.089)" fill="#ffd6d6"/>
      <path id="Path_86" data-name="Path 86" d="M491.53,467.181a50.608,50.608,0,0,1-6.934,3.6s-11.335-1.644-12.973.294-16.094,2.687-16.094,2.687-22.076-1.043-25.358-3.876a13.427,13.427,0,0,0-3.352-1.987l.364-5.668s56.88-3.583,61.456.791A15.089,15.089,0,0,1,491.53,467.181Z" transform="translate(843.813 85.467)" opacity="0.1"/>
      <path id="Path_87" data-name="Path 87" d="M488.821,417.342c-.448,2.533-9.7,6.41-9.7,6.41s-11.335-1.637-12.973.3-16.094,2.687-16.094,2.687-22.076-1.05-25.358-3.883-10.594-4.2-10.594-4.2-3.729-26.547-2.232-32.362-2.239-21.782-3.135-27.45,2.533-21.327,6.71-23.86,10.146-11.042,13.722-13.575c3.016-2.134,6.346-4.9,7.319-5.731l.287-.238s.6-4.625,2.988-7,24.308,15.065,24.308,15.065.154,1.344,1.644-1.19c.336-.567,3.226,3.6,3.73,5.367,0,0,11.93,20.887,12.679,25.19S486,371.224,486.6,374.652c.154.882.406,3.974.7,8.117.056.812.105,1.672.168,2.568.441,6.871.917,15.646,1.2,22.279,0,.756.063,1.483.084,2.183A74.22,74.22,0,0,1,488.821,417.342Z" transform="translate(849.286 131.296)" fill="#dce6f2"/>
      <path id="Path_88" data-name="Path 88" d="M415,387.21s8.2,9.992,10.888,9.992S415,387.21,415,387.21Z" transform="translate(847.362 107.578)" opacity="0.1"/>
      <path id="Path_89" data-name="Path 89" d="M434.626,417.91s-13.428,14.617-11.636,17.3S434.626,417.91,434.626,417.91Z" transform="translate(845.013 98.36)" opacity="0.1"/>
      <path id="Path_90" data-name="Path 90" d="M425.62,449.751s15.394-16.856,16.094-22.671Z" transform="translate(844.173 95.606)" opacity="0.1"/>
      <path id="Path_91" data-name="Path 91" d="M453.33,453.336s17.752-9.4,19.242-16.856S453.33,453.336,453.33,453.336Z" transform="translate(835.853 93.21)" opacity="0.1"/>
      <path id="Path_92" data-name="Path 92" d="M484.463,330.745,482,336.707l4.1,1.938,4.03,11.266s11.112,22.223,10.664,33.782,2.015,28.933,2.015,28.933l6.409-1.19-3.023-34a49.045,49.045,0,0,0-3.9-15.261C497.17,350.449,487.64,328.8,487.038,328.8c-.819,0-.245.3-.245.3Z" transform="translate(827.244 125.118)" opacity="0.1"/>
      <path id="Path_93" data-name="Path 93" d="M485.313,329.888l-2.463,5.969,4.107,1.938,4.023,11.265s11.111,22.223,10.664,33.783,2.015,28.933,2.015,28.933l6.416-1.19-3.03-34a48.85,48.85,0,0,0-3.9-15.261C498.027,349.592,488.5,327.95,487.9,327.95c-.826,0-.252.3-.252.3Z" transform="translate(826.988 125.373)" fill="#575989"/>
      <path id="Path_94" data-name="Path 94" d="M583.811,447.088c-3.121-.238-10.608-4.023-13.582-5.6l-1.259-.7.154-11.552a20.289,20.289,0,0,1,2.281-1.155c3.974-1.735,12.126-4.093,16.212,3.5C593.131,441.763,587.764,447.354,583.811,447.088Z" transform="translate(801.128 95.833)" fill="#ffd6d6"/>
      <path id="Path_95" data-name="Path 95" d="M476.349,250.457a3.307,3.307,0,0,1-1.043.427c-2.6.567-5.549-1.665-7.774-.231-1.358.882-1.672,2.708-1.854,4.317q-.476,4.2-.952,8.341a10.292,10.292,0,0,1-.616,2.876c-1.1,2.512-4.114,3.695-6.864,3.653a4.093,4.093,0,0,1-2.96-.98c-.483-.49-.742-1.176-1.274-1.623-3.5-2.932-4.562,4.254-3.639,6.3,1.483,3.338,6.752,6.556,4.541,10.8a4.044,4.044,0,0,1-1.623,1.63,22.391,22.391,0,1,1,24.056-35.5Z" transform="translate(840.878 151.122)" opacity="0.1"/>
      <path id="Path_96" data-name="Path 96" d="M449.328,262.867c.525.441.791,1.127,1.274,1.616a4.1,4.1,0,0,0,2.96.98c2.75.042,5.766-1.134,6.857-3.66a9.958,9.958,0,0,0,.623-2.869l.952-8.341c.182-1.609.49-3.436,1.854-4.317,2.225-1.4,5.178.8,7.774.231a3.8,3.8,0,0,0,2.8-4.38c-.3-1.337-1.323-2.393-1.847-3.667a23.973,23.973,0,0,1-.763-2.988c-1.448-5.43-7.823-8.481-13.365-7.571-3.079.511-5.941,1.98-9.026,2.428-2.211.322-4.471.112-6.7.35a16.921,16.921,0,0,0-5.948,1.756,3.457,3.457,0,0,0-1.259.952,5.255,5.255,0,0,0-.63,1.791c-.749,2.8-3.156,4.863-4.9,7.221a17.206,17.206,0,0,0-3.317,9.313,7.466,7.466,0,0,0,.238,2.554c.147.49.378.966.49,1.469.343,1.532-.441,3.065-.826,4.59a9.18,9.18,0,0,0,.49,5.836c2.687,6.179,11.538,8.243,13.379,14.729a14.692,14.692,0,0,0,5.206,1.4,5.022,5.022,0,0,0,4.59-2.344c2.2-4.2-3.058-7.459-4.541-10.79C444.759,267.107,445.8,259.928,449.328,262.867Z" transform="translate(843.969 155.463)" fill="#353045"/>
      <path id="Path_97" data-name="Path 97" d="M698.719,294.1a25.714,25.714,0,0,0-1.4,9.964c-1.077.917-2.253-1.826-3.5-1.12-3.415,1.973-7.361,6.668-11.587,6.668a23.209,23.209,0,0,1-10.545-2.526,61.342,61.342,0,0,0-4.2-11.4S703.491,280.377,698.719,294.1Z" transform="translate(771.544 137.253)" opacity="0.1"/>
      <path id="Path_98" data-name="Path 98" d="M701.806,273.773A23.273,23.273,0,1,1,678.533,250.5,23.273,23.273,0,0,1,701.806,273.773Z" transform="translate(775.217 148.629)" fill="#d28690"/>
      <path id="Path_99" data-name="Path 99" d="M695.692,332.7s-4.381,4.772-4.975,5.164-13.295,53.879-13.519,54.5-15.121,48.917-15.121,48.917L638.21,453.014l1.994-59.07L657.7,345.229s5.773-6.563,7.557-8.949,24.063-16.709,24.063-16.709l3.806,7.844Z" transform="translate(780.337 127.889)" fill="#f0f3f7"/>
      <path id="Path_100" data-name="Path 100" d="M703.884,329.124l-27.443,19.648L676,337.982c1.791-2.386,24.063-16.7,24.063-16.7Z" transform="translate(768.989 127.376)" opacity="0.1"/>
      <path id="Path_101" data-name="Path 101" d="M704.74,327.414,677.3,347.062l-.427-10.783c1.791-2.393,24.063-16.709,24.063-16.709Z" transform="translate(768.728 127.889)" fill="#f0f3f7"/>
      <path id="Path_102" data-name="Path 102" d="M661.053,336.59l.917,4.8-6.137,6.234,4.9-10.965s-10.5,7.312-13.644,9.25-6.3,8.5-6.416,10.293S635.6,384.99,635.6,384.99s-3.73,9.992-2.68,12.826S627.25,490,627.25,490a13.3,13.3,0,0,1,8.97-6.878l-2.393-52.8s2.911-35.126,3.058-35.574,6.787-20.81,6.787-20.81Z" transform="translate(783.628 122.778)" fill="#585b8a"/>
      <path id="Path_103" data-name="Path 103" d="M664,344.3l-.476,9.8s-6.64,20.957-8.872,24.385-9.026,23.867-9.026,23.867l-3.828,35.5-6.563,2.988L632,434.886l5.374-34.286s10.139-28.933,11.636-31.921l7.48-15.758Z" transform="translate(782.201 120.463)" opacity="0.1"/>
      <path id="Path_104" data-name="Path 104" d="M663.129,343.45l-.469,9.8s-6.64,20.957-8.88,24.385-9.019,23.867-9.019,23.867L640.955,437l-6.563,2.981-3.282-5.961,5.374-34.286s10.139-28.94,11.629-31.921l7.536-15.737Z" transform="translate(782.469 120.719)" fill="#663d5c"/>
      <path id="Path_105" data-name="Path 105" d="M566.31,448.914l12.826,8.879s9.047-5.073,3.779-8.355a23.363,23.363,0,0,0-11.636-3.778C569.585,445.66,566.31,448.914,566.31,448.914Z" transform="translate(801.927 90.027)" fill="#d28690"/>
      <path id="Path_106" data-name="Path 106" d="M579.6,426.344a1.973,1.973,0,0,0-.931,1.686c0,2.722.308,9.929,2.589,6.675,2.8-3.981,2.288-7.557,6.563-4.975a25.194,25.194,0,0,1,6.857,6.3l-1.189-8.55S584.7,423.139,579.6,426.344Z" transform="translate(798.216 96.182)" fill="#d28690"/>
      <path id="Path_107" data-name="Path 107" d="M699.409,554.892a19.26,19.26,0,0,0-1.68,6.053c-26.156,7.844-45.293-8.74-45.293-8.74a228.292,228.292,0,0,1-5.668-23.86c-.469-2.757-.364-8.1.07-14.624l46.762-8.2S702.4,550.267,699.409,554.892Z" transform="translate(777.859 72.052)" opacity="0.1"/>
      <path id="Path_108" data-name="Path 108" d="M726.24,365.472c-1.19,3.883-.742,11.783-.742,11.783l-10.741,50.716s-5.22,39.079-6.116,44.3-2.386,28.192-2.386,28.192c-30.431,14.918-53.879-5.367-53.879-5.367a228.636,228.636,0,0,1-5.667-23.867c-1.5-8.858,2.911-44.348,5-60.113.623-4.667,1.043-7.606,1.043-7.606l7.83-29.087s9.621-24.539,13.2-31.7,17.969-23.238,17.969-23.238c1.784-1.134,4.639,2.869,6.759,6.514,1.6,2.757,2.8,5.318,2.8,5.318s17.9,7.753,20.579,11.9,2.239,12.679,2.54,13.127S727.436,361.6,726.24,365.472Z" transform="translate(777.876 127.973)" fill="#585b8a"/>
      <path id="Path_109" data-name="Path 109" d="M686.574,347.681s1.344,7.907-2.1,10.293c-3.323,2.309-28.066,50.96-29.6,54,.622-4.674,1.042-7.613,1.042-7.613l7.83-29.08s9.628-24.539,13.2-31.7,17.976-23.238,17.976-23.238c1.784-1.134,4.632,2.869,6.752,6.514C698.476,333.491,691.808,346.044,686.574,347.681Z" transform="translate(775.334 127.718)" opacity="0.1"/>
      <path id="Path_110" data-name="Path 110" d="M685.718,346.831s1.337,7.907-2.1,10.293S655.561,408.078,654,411.114c.623-4.667,1.042-7.606,1.042-7.606l7.83-29.087s9.621-24.539,13.2-31.7,17.969-23.238,17.969-23.238c1.784-1.134,4.639,2.869,6.759,6.514C697.621,332.634,690.945,345.194,685.718,346.831Z" transform="translate(775.595 127.973)" fill="#585b8a"/>
      <path id="Path_111" data-name="Path 111" d="M659.784,419.225l-8.418,43.8v.007l-.8,4.191v.007l-1.812,9.425-7.732-1.637-3.6-.763-49.869-10.566-3.667-.777-8.369-1.77,1.637-10.874.679-4.52,6.039-40.094Z" transform="translate(837.026 127.028)" fill="#6382ff"/>
      <path id="Path_112" data-name="Path 112" d="M676.628,511.92s-19.837,7.158-15.513,15.66,32.068-6.563,32.068-6.563Z" transform="translate(773.644 70.13)" fill="#d28690"/>
      <path id="Path_113" data-name="Path 113" d="M703.8,599.1c0,.595.749,8.208,3.729,10.888S703.8,599.1,703.8,599.1Z" transform="translate(760.641 43.952)" opacity="0.1"/>
      <path id="Path_114" data-name="Path 114" d="M675.24,637.68s3.576,9.845,17.745,13.875S675.24,637.68,675.24,637.68Z" transform="translate(769.217 32.367)" opacity="0.1"/>
      <path id="Path_115" data-name="Path 115" d="M703.748,273.8a23.266,23.266,0,0,1-11.664,20.173,12.388,12.388,0,0,1-3.5-2.918c-1.015-1.232-1.805-2.911-1.2-4.38.49-1.183,1.784-1.931,2.1-3.156a4.645,4.645,0,0,0-.112-2.253c-.259-1.155-.5-2.309-.756-3.457-.217-.98-.6-2.134-1.574-2.372s-1.784.574-2.547,1.176c-1.868,1.476-5.451,2.477-7.7,1.267s-1.616-5.262-1.98-7.452a1.3,1.3,0,0,0-.49-.987,2.044,2.044,0,0,0-1.015-.07,2.921,2.921,0,0,1-2.533-2.246,19.335,19.335,0,0,1-.406-3.6,4.02,4.02,0,0,0-1.609-3.114,4.975,4.975,0,0,0-2.652-.434l-4.387.049a23.273,23.273,0,0,1,41.983,13.8Z" transform="translate(773.274 148.604)" opacity="0.1"/>
      <path id="Path_116" data-name="Path 116" d="M683.377,273.919c.763-.6,1.6-1.4,2.547-1.169s1.35,1.4,1.567,2.365l.755,3.45a4.689,4.689,0,0,1,.119,2.26c-.357,1.232-1.644,1.973-2.141,3.156-.608,1.469.189,3.149,1.2,4.373a12.6,12.6,0,0,0,7.2,4.3,5.291,5.291,0,0,0,2.246.049c1.665-.385,2.8-1.917,3.694-3.352,4.625-7.207,8.607-15.107,9.418-23.629a15.158,15.158,0,0,0-.238-5.213,17.5,17.5,0,0,0-1.6-3.813,30.78,30.78,0,0,0-4.5-6.808,25.555,25.555,0,0,0-12.091-6.78,40.948,40.948,0,0,0-15.611-1.224c-1.4.161-2.743.392-4.121.483a41.469,41.469,0,0,1-5.192-.084l-10.3-.616c-.588,1.2,0,2.617.7,3.737s1.568,2.281,1.511,3.611-1,2.379-1.728,3.5-1.281,2.568-.553,3.66,2.211,1.162,3.5,1.148l5.192-.056a4.961,4.961,0,0,1,2.638.455,4.031,4.031,0,0,1,1.609,3.114,20.593,20.593,0,0,0,.406,3.6,2.911,2.911,0,0,0,2.533,2.246,1.889,1.889,0,0,1,1.015.077,1.288,1.288,0,0,1,.49.98c.364,2.19-.308,6.234,1.98,7.452S681.509,275.4,683.377,273.919Z" transform="translate(775.019 151.296)" fill="#663d5c"/>
      <path id="Path_117" data-name="Path 117" d="M718.515,353.442a11.405,11.405,0,0,0-12,7.662c-2.8,7.97-7.466,22.349-6.3,28.031,1.644,8.054,3.583,21.481,3.583,21.481s8.5,4.9,4.2,9.838-5.521,11.937-5.521,11.937-5.521,2.386-6.71,7.459-9.25,12.077-9.25,12.077L674.44,464.012s19.984,20.292,24.015,21.327l12.378-14.47L725.45,451.48l12.679-13.295s2.981-7,1.491-20.292-7.312-25.953-7.312-25.953l.448-4.478S734.126,355.381,718.515,353.442Z" transform="translate(769.458 117.737)" opacity="0.1"/>
      <path id="Path_118" data-name="Path 118" d="M720.218,353.443a11.405,11.405,0,0,0-11.986,7.662c-2.8,7.97-7.466,22.349-6.3,28.031,1.637,8.054,3.576,21.482,3.576,21.482s8.5,4.9,4.2,9.838-5.514,11.937-5.514,11.937-5.521,2.386-6.717,7.459-9.243,12.077-9.243,12.077L676.15,464.013s19.984,20.292,24.014,21.328l12.378-14.47,14.582-19.389L739.8,438.186s2.988-7,1.49-20.292-7.3-25.953-7.3-25.953l.448-4.478S735.829,355.381,720.218,353.443Z" transform="translate(768.944 117.737)" fill="#585b8a"/>
      <path id="Path_119" data-name="Path 119" d="M721.28,418.34s12.679,15.506,18.053,12.077S721.28,418.34,721.28,418.34Z" transform="translate(755.393 98.23)" opacity="0.1"/>
      <path id="Path_120" data-name="Path 120" d="M728.1,401.28c1.343.448,12.385,15.814,18.053,13.994S728.1,401.28,728.1,401.28Z" transform="translate(753.344 103.353)" opacity="0.1"/>
      <path id="Path_121" data-name="Path 121" d="M732.58,439s.749,8.8,9.845,7.606S732.58,439,732.58,439Z" transform="translate(751.999 92.027)" opacity="0.1"/>
      <path id="Path_122" data-name="Path 122" d="M618.909,301.83l-4.919,10.965,6.143-6.234Z" transform="translate(825.471 158.203)" opacity="0.1"/>
      <path id="Path_123" data-name="Path 123" d="M618.909,300.98l-4.919,10.965,6.143-6.235Z" transform="translate(825.471 158.458)" fill="#f0f3f7"/>
      <path id="Path_124" data-name="Path 124" d="M588.248,480.891l-3.667-.777L577.85,467.47l.679-4.52Z" transform="translate(836.323 109.822)" opacity="0.3"/>
      <path id="Path_125" data-name="Path 125" d="M677.932,487.65l-.8,4.191v.007l-9.544,7.788-3.6-.763Z" transform="translate(810.46 102.405)" opacity="0.3"/>
      <path id="Path_126" data-name="Path 126" d="M492.222,420.606c-1.847.308-3.639.588-5.276.8-9.1,1.2-30.732-9.544-30.732-9.544s-26.4-22.076-34.006-42.956,9.1-24.014,9.1-24.014c6.3-3.583,19.991,6.409,21.929,8.054s3.583,5.815,3.429,8.5,4.478,6.116,4.478,6.116,7.907,13.722,9.845,15.212,2.386,2.834,2.981,5.374,5.815,4.625,8.054,4.471,4.9.749,4.9,1.938c0,.958,2.19,1.434,3.988,1.588C491.438,403.792,491.963,413.812,492.222,420.606Z" transform="translate(845.794 120.518)" opacity="0.1"/>
      <path id="Path_127" data-name="Path 127" d="M492.652,417.4c-1.4.224-2.743.427-4,.595-9.1,1.2-30.725-9.544-30.725-9.544s-26.4-22.076-34.007-42.956,9.1-24.014,9.1-24.014c6.3-3.583,19.984,6.409,21.922,8.054s3.583,5.815,3.436,8.5,4.471,6.116,4.471,6.116,7.907,13.722,9.845,15.212,2.386,2.834,2.988,5.374,5.815,4.618,8.054,4.471,4.9.749,4.9,1.938c0,.7,1.246,1.169,2.631,1.4.056.812.1,1.672.168,2.568C491.889,401.991,492.365,410.766,492.652,417.4Z" transform="translate(845.281 121.542)" opacity="0.1"/>
      <path id="Path_128" data-name="Path 128" d="M571.405,428.84l-.567,13.407h-.609l-1.259-.7.154-11.552A20.283,20.283,0,0,1,571.405,428.84Z" transform="translate(801.128 95.078)" opacity="0.1"/>
      <path id="Path_129" data-name="Path 129" d="M431.3,343.181s-16.7,3.135-9.1,24.014,34.006,42.963,34.006,42.963,21.628,10.734,30.732,9.544,22.965-4.324,24.756-3.876,13.876.448,13.876.448l.595-13.994-13.994-.749-7.158-1.49s-2.54-2.1-4.03-1.791-4.618-1.791-4.618-1.791-2.393-1.938-4.2-1.938-5.22-.448-5.22-1.637-2.687-2.1-4.9-1.938-7.494-1.938-8.11-4.506-1.043-3.876-2.981-5.367-9.845-15.219-9.845-15.219-4.625-3.429-4.478-6.109-1.49-6.864-3.429-8.509S437.56,339.605,431.3,343.181Z" transform="translate(845.794 121.03)" fill="#dce6f2"/>
      <path id="Path_130" data-name="Path 130" d="M495.294,412.15s-6.416,6.416-4.779,7.606Z" transform="translate(824.767 100.089)" opacity="0.1"/>
      <path id="Path_131" data-name="Path 131" d="M504.472,419.4s-8.355,6.416-6.116,6.864S504.472,419.4,504.472,419.4Z" transform="translate(822.447 97.912)" opacity="0.1"/>
      <path id="Path_132" data-name="Path 132" d="M487,433c1.2.6,18.941,11.2,25.659,11.042Z" transform="translate(825.742 93.829)" opacity="0.1"/>
      <path id="Path_133" data-name="Path 133" d="M476.883,325.236s-3.135,10.293-4.331,10.293c-.938,0-16.681-12.749-23.252-18.109l.287-.238s.595-4.625,2.981-7S476.883,325.236,476.883,325.236Z" transform="translate(837.063 130.774)" opacity="0.1"/>
      <path id="Path_134" data-name="Path 134" d="M476.023,323.526s-3.128,10.293-4.324,10.293c-.945,0-16.688-12.749-23.259-18.109l.287-.238s.6-4.625,2.988-7S476.023,323.526,476.023,323.526Z" transform="translate(837.321 131.288)" fill="#dce6f2"/>
      <g id="Group_17" data-name="Group 17" transform="translate(1271.102 387.018)" opacity="0.15">
        <path id="Path_135" data-name="Path 135" d="M427.49,282.54h0c2.1,4.793,7.879,7.116,11.23,10.937C436.726,288.781,430.9,286.479,427.49,282.54Z" transform="translate(-427.49 -248.009)"/>
        <path id="Path_136" data-name="Path 136" d="M454.114,296.584a5.029,5.029,0,0,1-4.59,2.344,13.391,13.391,0,0,1-4.6-1.175,8.954,8.954,0,0,1,1.19,2.533,14.623,14.623,0,0,0,5.206,1.4,4.979,4.979,0,0,0,4.59-2.344c1.336-2.554-.056-4.737-1.686-6.8A4.443,4.443,0,0,1,454.114,296.584Z" transform="translate(-432.724 -251.012)"/>
        <path id="Path_137" data-name="Path 137" d="M481.945,243.693c-.3-1.343-1.323-2.4-1.847-3.667a22.865,22.865,0,0,1-.763-2.995,9.28,9.28,0,0,0-2.148-3.842,8.955,8.955,0,0,1,.357,1.057,24.023,24.023,0,0,0,.784,3.009c.525,1.267,1.546,2.323,1.847,3.667a3.8,3.8,0,0,1-2.8,4.38c-2.589.567-5.542-1.672-7.767-.231-1.364.875-1.679,2.7-1.861,4.31q-.469,4.2-.952,8.348a10.006,10.006,0,0,1-.616,2.869c-1.1,2.519-4.114,3.7-6.864,3.66a4.121,4.121,0,0,1-2.953-.98,19.532,19.532,0,0,0-1.281-1.623c-3.5-2.939-4.562,4.247-3.639,6.3a12.678,12.678,0,0,0,1.707,2.568c-.77-2.309.308-8.956,3.723-6.109a18.08,18.08,0,0,1,1.273,1.623,4.149,4.149,0,0,0,2.96.98c2.75.042,5.766-1.14,6.864-3.659a10,10,0,0,0,.616-2.876q.476-4.2.952-8.341c.182-1.609.5-3.436,1.854-4.31,2.232-1.441,5.185.8,7.774.224A3.793,3.793,0,0,0,481.945,243.693Z" transform="translate(-434.588 -233.19)"/>
      </g>
      <path id="Path_138" data-name="Path 138" d="M698.288,290.877a5.409,5.409,0,0,1-2.246-.056,12.6,12.6,0,0,1-7.193-4.3c-1.015-1.231-1.812-2.911-1.2-4.38.49-1.183,1.777-1.924,2.1-3.156a4.687,4.687,0,0,0-.119-2.26l-.756-3.45c-.217-.98-.595-2.134-1.567-2.365s-1.784.567-2.547,1.169c-1.868,1.476-5.458,2.484-7.7,1.267s-1.616-5.262-1.98-7.452a1.308,1.308,0,0,0-.49-.98,2,2,0,0,0-1.022-.077,2.929,2.929,0,0,1-2.533-2.246,19.872,19.872,0,0,1-.4-3.6,4.038,4.038,0,0,0-1.616-3.114,5.032,5.032,0,0,0-2.638-.455l-5.192.056c-1.281,0-2.8-.084-3.5-1.148s-.182-2.575.553-3.66,1.665-2.162,1.728-3.5-.8-2.491-1.511-3.611a6.473,6.473,0,0,1-.882-2l-1.49-.091c-.581,1.19,0,2.61.7,3.737s1.574,2.281,1.511,3.6-.993,2.386-1.728,3.5-1.273,2.568-.546,3.66,2.2,1.169,3.5,1.155l5.192-.063a5.023,5.023,0,0,1,2.638.462,4.017,4.017,0,0,1,1.616,3.114,19.348,19.348,0,0,0,.406,3.6,2.9,2.9,0,0,0,2.533,2.239,2.05,2.05,0,0,1,1.015.077,1.317,1.317,0,0,1,.49.987c.364,2.183-.308,6.235,1.98,7.452s5.856.21,7.7-1.266c.763-.6,1.609-1.4,2.554-1.175s1.351,1.4,1.56,2.365l.763,3.457a4.681,4.681,0,0,1,.112,2.26c-.35,1.224-1.644,1.973-2.134,3.149-.609,1.469.182,3.156,1.2,4.38a12.6,12.6,0,0,0,7.242,4.3,5.406,5.406,0,0,0,2.246.056,5.275,5.275,0,0,0,2.911-2.211A3.889,3.889,0,0,1,698.288,290.877Z" transform="translate(775.089 151.341)" opacity="0.1"/>
      <ellipse id="Ellipse_9" data-name="Ellipse 9" cx="16.912" cy="2.596" rx="16.912" ry="2.596" transform="translate(1135.454 746.051)" fill="#6c63ff" opacity="0.1"/>
      <ellipse id="Ellipse_10" data-name="Ellipse 10" cx="16.912" cy="2.596" rx="16.912" ry="2.596" transform="translate(1725.962 678.556)" fill="#6c63ff" opacity="0.1"/>
      <path id="Path_248" data-name="Path 248" d="M48.98,0c27.051,0,48.98,3.365,48.98,7.515S76.031,15.03,48.98,15.03,0,11.665,0,7.515,21.929,0,48.98,0Z" transform="translate(1521.476 778.245)" fill="#63b6ff" opacity="0.1"/>
      <ellipse id="Ellipse_12" data-name="Ellipse 12" cx="38.205" cy="5.864" rx="38.205" ry="5.864" transform="translate(1671.489 748.059)" fill="#63b6ff" opacity="0.1"/>
      <ellipse id="Ellipse_13" data-name="Ellipse 13" cx="64.787" cy="9.943" rx="64.787" ry="9.943" transform="translate(1638.616 802.406)" fill="#63b6ff" opacity="0.1"/>
      <ellipse id="Ellipse_14" data-name="Ellipse 14" cx="48.98" cy="7.515" rx="48.98" ry="7.515" transform="translate(1031 813.581)" fill="#6c63ff" opacity="0.1"/>
      <path id="Path_139" data-name="Path 139" d="M256.634,631.85s1.917,2.505-.882,6.3-5.108,7-4.2,9.334c0,0,4.2-7,7.7-7.123S260.419,636.076,256.634,631.85Z" transform="translate(896.502 34.118)" fill="#6c63ff"/>
      <path id="Path_140" data-name="Path 140" d="M256.687,631.85a2.8,2.8,0,0,1,.392.784c3.359,3.946,5.143,7.62,1.917,7.7-3,.084-6.605,5.458-7.466,6.815a2.609,2.609,0,0,0,.1.308s4.2-7,7.7-7.123S260.472,636.076,256.687,631.85Z" transform="translate(896.449 34.118)" opacity="0.1"/>
      <path id="Path_141" data-name="Path 141" d="M263.808,636.167c0,.882-.1,1.6-.224,1.6s-.224-.7-.224-1.6.126-.462.245-.462S263.808,635.285,263.808,636.167Z" transform="translate(892.897 32.992)" fill="#ffd037"/>
      <path id="Path_142" data-name="Path 142" d="M265.093,637.659c-.77.42-1.448.7-1.5.567s.518-.532,1.295-.958.469-.112.525,0S265.869,637.232,265.093,637.659Z" transform="translate(892.829 32.556)" fill="#ffd037"/>
      <path id="Path_143" data-name="Path 143" d="M242.595,631.85s-1.917,2.505.882,6.3,5.115,7,4.2,9.334c0,0-4.2-7-7.662-7.123S238.788,636.076,242.595,631.85Z" transform="translate(900.424 34.118)" fill="#6c63ff"/>
      <path id="Path_144" data-name="Path 144" d="M242.588,631.85a3.083,3.083,0,0,0-.392.784c-3.359,3.946-5.143,7.62-1.917,7.7,3,.084,6.605,5.458,7.473,6.815a2.655,2.655,0,0,1-.1.308s-4.2-7-7.662-7.123S238.782,636.076,242.588,631.85Z" transform="translate(900.43 34.118)" opacity="0.1"/>
      <path id="Path_145" data-name="Path 145" d="M239.35,636.167c0,.882.1,1.6.217,1.6s.224-.7.224-1.6-.126-.462-.245-.462S239.35,635.285,239.35,636.167Z" transform="translate(900.106 32.992)" fill="#ffd037"/>
      <path id="Path_146" data-name="Path 146" d="M237.4,637.659c.777.42,1.448.7,1.511.567s-.525-.532-1.3-.958-.469-.112-.525,0S236.621,637.232,237.4,637.659Z" transform="translate(900.834 32.556)" fill="#ffd037"/>
      <ellipse id="Ellipse_15" data-name="Ellipse 15" cx="20.033" cy="3.072" rx="20.033" ry="3.072" transform="translate(1128.044 694.614)" fill="#6c63ff" opacity="0.1"/>
      <path id="Path_147" data-name="Path 147" d="M257.556,648.849l-.1.784-.133,1.105-.056.462-.133,1.106-.063.462-.133,1.105-1.532,12.595c-.133,1.12-1.966,1.994-4.2,1.994h-7.935c-2.211,0-4.044-.874-4.2-1.994l-1.532-12.595-.133-1.105-.056-.462-.14-1.106-.056-.462-.133-1.105-.1-.784c-.077-.637.917-1.169,2.169-1.169h16.3C256.639,647.68,257.633,648.212,257.556,648.849Z" transform="translate(900.835 29.364)" fill="#65617d"/>
      <path id="Path_148" data-name="Path 148" d="M203.392,614.76l-.133,1.106H183.093l-.133-1.106Z" transform="translate(954.901 64.237)" fill="#9d9cb5"/>
      <path id="Path_149" data-name="Path 149" d="M203.284,617l-.133,1.106H183.37L183.23,617Z" transform="translate(954.82 63.564)" fill="#9d9cb5"/>
      <path id="Path_150" data-name="Path 150" d="M203.179,619.24l-.14,1.106h-19.4l-.133-1.106Z" transform="translate(954.736 62.891)" fill="#9d9cb5"/>
      <path id="Path_151" data-name="Path 151" d="M1082.571,618s-2.393,11.139,8.25,12.455l.658-1.239S1083.229,621.457,1082.571,618Z" transform="translate(646.973 38.276)" fill="#6c63ff"/>
      <path id="Path_152" data-name="Path 152" d="M1096.273,626.714l-2.477.525-.245.056s-6.605-5.36-6.522-17.325a29.532,29.532,0,0,0,3.156,4.989C1092.8,618.423,1095.776,623.041,1096.273,626.714Z" transform="translate(645.565 40.688)" fill="#6c63ff"/>
      <path id="Path_153" data-name="Path 153" d="M1098.907,626.093a1.552,1.552,0,0,1-1.329.175c-6.353-1.483-4.2-22.188-4.2-22.188.35.161.7,2.8,2.2,6.2C1098.13,616.248,1100.95,624.6,1098.907,626.093Z" transform="translate(643.764 42.457)" fill="#6c63ff"/>
      <path id="Path_154" data-name="Path 154" d="M1116.895,618s.413,11.139-10.23,12.455L1106,629.2S1116.237,621.457,1116.895,618Z" transform="translate(639.868 38.276)" fill="#6c63ff"/>
      <path id="Path_155" data-name="Path 155" d="M1112.4,610a20.6,20.6,0,0,1-8.495,17.325l-.252-.056-2.47-.525c.49-3.674,3.5-8.292,6.081-11.755A26.9,26.9,0,0,1,1112.4,610Z" transform="translate(641.316 40.679)" fill="#6c63ff"/>
      <path id="Path_156" data-name="Path 156" d="M1102.966,625.019a3.859,3.859,0,0,1-1.4,1.085h0a2.708,2.708,0,0,1-.525.175c-1.56.364-2.1-.763-2.015-2.68.147-3.408,2.288-9.32,4.2-13.749a17.183,17.183,0,0,1,3.988-5.759S1107.115,620.2,1102.966,625.019Z" transform="translate(641.965 42.454)" fill="#6c63ff"/>
      <path id="Path_157" data-name="Path 157" d="M1100.632,593.7s-7.1,25.19-.986,28.954S1102.2,595.925,1100.632,593.7Z" transform="translate(642.522 45.573)" fill="#6c63ff"/>
      <path id="Path_158" data-name="Path 158" d="M1082.571,618s-2.393,11.139,8.25,12.455l.658-1.239S1083.229,621.457,1082.571,618Z" transform="translate(646.973 38.276)" opacity="0.1"/>
      <path id="Path_159" data-name="Path 159" d="M1096.273,626.714l-2.477.525-.245.056s-6.605-5.36-6.522-17.325a29.532,29.532,0,0,0,3.156,4.989C1092.8,618.423,1095.776,623.041,1096.273,626.714Z" transform="translate(645.565 40.688)" opacity="0.1"/>
      <path id="Path_160" data-name="Path 160" d="M1098.907,626.093a1.552,1.552,0,0,1-1.329.175c-6.353-1.483-4.2-22.188-4.2-22.188.35.161.7,2.8,2.2,6.2C1098.13,616.248,1100.95,624.6,1098.907,626.093Z" transform="translate(643.764 42.457)" opacity="0.1"/>
      <path id="Path_161" data-name="Path 161" d="M1116.895,618s.413,11.139-10.23,12.455L1106,629.2S1116.237,621.457,1116.895,618Z" transform="translate(639.868 38.276)" opacity="0.1"/>
      <path id="Path_162" data-name="Path 162" d="M1112.4,610a20.6,20.6,0,0,1-8.495,17.325l-.252-.056-2.47-.525c.49-3.674,3.5-8.292,6.081-11.755A26.9,26.9,0,0,1,1112.4,610Z" transform="translate(641.316 40.679)" opacity="0.1"/>
      <path id="Path_163" data-name="Path 163" d="M1102.966,625.019a3.859,3.859,0,0,1-1.4,1.085h0a2.708,2.708,0,0,1-.525.175c-1.56.364-2.1-.763-2.015-2.68.147-3.408,2.288-9.32,4.2-13.749a17.183,17.183,0,0,1,3.988-5.759S1107.115,620.2,1102.966,625.019Z" transform="translate(641.965 42.454)" opacity="0.1"/>
      <path id="Path_164" data-name="Path 164" d="M1100.632,593.7s-7.1,25.19-.986,28.954S1102.2,595.925,1100.632,593.7Z" transform="translate(642.522 45.573)" opacity="0.1"/>
      <path id="Path_165" data-name="Path 165" d="M1082.644,618s-1.4,11.139,9.236,12.455l.658-1.239S1083.3,621.457,1082.644,618Z" transform="translate(646.9 38.276)" fill="#6382ff"/>
      <path id="Path_166" data-name="Path 166" d="M1097.251,626.723l-2.478.525-.245.056s-7.592-5.36-7.529-17.3c0,0,1.945,2.1,4.143,4.989C1093.78,618.432,1096.754,623.05,1097.251,626.723Z" transform="translate(645.574 40.679)" fill="#6382ff"/>
      <path id="Path_167" data-name="Path 167" d="M1099.038,628.855l-2.477.525c-2.344-2.057-3.274-7.431-3.61-12.28C1095.567,620.564,1098.541,625.182,1099.038,628.855Z" transform="translate(643.787 38.547)" opacity="0.1"/>
      <path id="Path_168" data-name="Path 168" d="M1100.012,626.093a1.567,1.567,0,0,1-1.336.175c-6.354-1.483-5.192-22.188-5.192-22.188.35.161,1.721,2.8,3.183,6.2C1099.236,616.248,1102.048,624.6,1100.012,626.093Z" transform="translate(643.652 42.457)" fill="#6382ff"/>
      <path id="Path_169" data-name="Path 169" d="M1117.324,618s1.4,11.139-9.236,12.455l-.658-1.239S1116.666,621.457,1117.324,618Z" transform="translate(639.439 38.276)" fill="#6382ff"/>
      <path id="Path_170" data-name="Path 170" d="M1112.821,610c.083,11.965-7.508,17.325-7.508,17.325l-.245-.056-2.477-.525c.49-3.674,3.5-8.292,6.087-11.755C1110.875,612.1,1112.821,610,1112.821,610Z" transform="translate(640.892 40.679)" fill="#6382ff"/>
      <path id="Path_171" data-name="Path 171" d="M1108.678,617.1c-.322,4.52-1.148,9.5-3.156,11.818a3.546,3.546,0,0,1-.455.462l-2.477-.525C1103.08,625.182,1106.061,620.564,1108.678,617.1Z" transform="translate(640.892 38.547)" opacity="0.1"/>
      <path id="Path_172" data-name="Path 172" d="M1104.376,625.019a3.782,3.782,0,0,1-1.4,1.085h0a2.813,2.813,0,0,1-.517.175c-1.568.364-2.1-.763-2.023-2.68.154-3.408,2.3-9.32,4.2-13.749,1.4-3.184,2.666-5.6,3-5.759C1107.637,604.083,1108.526,620.2,1104.376,625.019Z" transform="translate(641.542 42.454)" fill="#6382ff"/>
      <path id="Path_173" data-name="Path 173" d="M1101.253,628.754a1.679,1.679,0,0,1-1.008-.322c-2.988-1.861-3.051-8.844-2.337-15.492C1100.477,618.909,1103.29,627.257,1101.253,628.754Z" transform="translate(642.411 39.796)" opacity="0.1"/>
      <path id="Path_174" data-name="Path 174" d="M1104.379,627.49c-.343.749-.8,1.141-1.4,1.085h0a1.884,1.884,0,0,1-.847-.322,4.523,4.523,0,0,1-1.693-2.183c.154-3.408,2.3-9.32,4.2-13.75C1105.324,618.456,1105.555,624.964,1104.379,627.49Z" transform="translate(641.538 39.982)" opacity="0.1"/>
      <path id="Path_175" data-name="Path 175" d="M1100.956,593.7s-6.1,25.19,0,28.954S1102.524,595.925,1100.956,593.7Z" transform="translate(642.197 45.573)" fill="#6382ff"/>
      <path id="Path_176" data-name="Path 176" d="M1053.847,597.61H1028.44v4.205h3.876l.1.5,1.554,8.166h14.771l1.553-8.166.091-.5h3.464Z" transform="translate(701.02 69.386)" fill="#4b4770"/>
      <path id="Path_177" data-name="Path 177" d="M1053.847,597.61H1028.44v4.205h3.876l.1.5,1.554,8.166h14.771l1.553-8.166.091-.5h3.464Z" transform="translate(701.02 69.386)" opacity="0.1"/>
      <path id="Path_178" data-name="Path 178" d="M1053.651,601.14l-.427,2.232-1.553,8.166H1036.9l-1.553-8.166-.427-2.232Z" transform="translate(699.074 68.326)" fill="#4b4770"/>
      <path id="Path_179" data-name="Path 179" d="M1053.651,601.14l-.427,2.232h-17.877l-.427-2.232Z" transform="translate(699.074 68.326)" opacity="0.1"/>
      <rect id="Rectangle_47" data-name="Rectangle 47" width="25.407" height="4.205" transform="translate(1730.447 666.996)" fill="#4b4770"/>
      <path id="Path_180" data-name="Path 180" d="M174.763,733.926a12.2,12.2,0,0,0-1.6,3.009c-.1.259-.2.56-.294.847a3.053,3.053,0,0,0-.553-.2,7.7,7.7,0,0,0-2.5-.21c0-.329.042-.7.049-1.029.1-3.687-.329-8.823-3.848-6.647-3.373,2.1-.966,5.6,1.211,7.837.189.2.378.378.56.553-1.987,1.4-2.365,4.709-2.694,8.145s-3.247,7.193-5.185,9.327c-.2.217-.371.413-.546.595a7.1,7.1,0,0,0-5.633-1.448c-.077-.3-.168-.616-.259-.945-1.567-5.661-4.821-15.464-8.97-17.612l.546-.7c1.763-2.3,3.751-5.731.819-6.605s-3.2,2.967-3.037,5.85q.042.546.084,1.029a4.29,4.29,0,0,0-3.065,1.5l-.455-.539c-2.379-2.8-6.738-7.256-8.061-3.89-1.232,3.135,2.61,7.207,5.311,9.565l.168.147c-1.812,7.354,6.1,13.351,10.363,15.974l.553.336c-5.878,6.928-9.509,19.914-9.509,19.914l16.457,2.939S165.6,772.249,164.2,763.4h.112c10.909-2.183,13.386-13.812,11.685-20.719l.2-.077a12.347,12.347,0,0,0,5.052-3.82C184.293,734.555,177.912,729.769,174.763,733.926Z" transform="translate(932.611 5.03)" fill="#6c63ff"/>
      <path id="Path_181" data-name="Path 181" d="M174.763,733.926a12.2,12.2,0,0,0-1.6,3.009c-.1.259-.2.56-.294.847a3.053,3.053,0,0,0-.553-.2,7.7,7.7,0,0,0-2.5-.21c0-.329.042-.7.049-1.029.1-3.687-.329-8.823-3.848-6.647-3.373,2.1-.966,5.6,1.211,7.837.189.2.378.378.56.553-1.987,1.4-2.365,4.709-2.694,8.145s-3.247,7.193-5.185,9.327c-.2.217-.371.413-.546.595a7.1,7.1,0,0,0-5.633-1.448c-.077-.3-.168-.616-.259-.945-1.567-5.661-4.821-15.464-8.97-17.612l.546-.7c1.763-2.3,3.751-5.731.819-6.605s-3.2,2.967-3.037,5.85q.042.546.084,1.029a4.29,4.29,0,0,0-3.065,1.5l-.455-.539c-2.379-2.8-6.738-7.256-8.061-3.89-1.232,3.135,2.61,7.207,5.311,9.565l.168.147c-1.812,7.354,6.1,13.351,10.363,15.974l.553.336c-5.878,6.928-9.509,19.914-9.509,19.914l16.457,2.939S165.6,772.249,164.2,763.4h.112c10.909-2.183,13.386-13.812,11.685-20.719l.2-.077a12.347,12.347,0,0,0,5.052-3.82C184.293,734.555,177.912,729.769,174.763,733.926Z" transform="translate(932.611 5.03)" opacity="0.1"/>
      <path id="Path_182" data-name="Path 182" d="M142.435,739.944l-1.924,5.6s-1.071-.756-2.421-1.945c-2.7-2.358-6.542-6.43-5.311-9.565,1.322-3.366,5.682,1.078,8.061,3.89C141.8,739.042,142.435,739.944,142.435,739.944Z" transform="translate(932.179 3.797)" fill="#6378ff"/>
      <path id="Path_183" data-name="Path 183" d="M151.513,735.463a26.651,26.651,0,0,1-1.875,2.211,29.51,29.51,0,0,1-.343-2.967c-.161-2.883.147-6.71,3.037-5.85S153.277,733.161,151.513,735.463Z" transform="translate(927.158 5.025)" fill="#6378ff"/>
      <path id="Path_184" data-name="Path 184" d="M185.629,736.544c-.056,1.854-.238,3.338-.238,3.338a24.393,24.393,0,0,1-2.4-2.148c-2.176-2.26-4.583-5.745-1.211-7.837C185.265,727.713,185.7,732.856,185.629,736.544Z" transform="translate(917.896 4.833)" fill="#6378ff"/>
      <path id="Path_185" data-name="Path 185" d="M200.332,740.323a12.348,12.348,0,0,1-5.052,3.82,15.123,15.123,0,0,1-1.693.616l-2.267-3.184a22.515,22.515,0,0,1,.938-3.093,12.209,12.209,0,0,1,1.6-3.009C196.988,731.318,203.383,736.1,200.332,740.323Z" transform="translate(914.529 3.481)" fill="#6378ff"/>
      <path id="Path_186" data-name="Path 186" d="M143.22,740.11c.959,1.119,1.6,1.987,1.6,1.987l-1.924,5.6s-1.071-.756-2.421-1.945a10.987,10.987,0,0,1,2.169-4.947C142.828,740.572,143.031,740.334,143.22,740.11Z" transform="translate(929.798 1.609)" opacity="0.1"/>
      <path id="Path_187" data-name="Path 187" d="M151.528,738.026a26.713,26.713,0,0,1-1.875,2.211,29.534,29.534,0,0,1-.343-2.967A3.871,3.871,0,0,1,151.528,738.026Z" transform="translate(927.144 2.462)" opacity="0.1"/>
      <path id="Path_188" data-name="Path 188" d="M158.285,760.822l-4.786,2.1s-1.043-.5-2.547-1.441c-5.031-3.093-15.142-10.881-8.4-20.061s12.434,7.284,14.694,15.338C157.928,759.205,158.285,760.822,158.285,760.822Z" transform="translate(929.847 2.029)" fill="#6378ff"/>
      <path id="Path_189" data-name="Path 189" d="M184.18,740.81a3.933,3.933,0,0,1,2.638-1.19c-.056,1.854-.238,3.338-.238,3.338A24.468,24.468,0,0,1,184.18,740.81Z" transform="translate(916.673 1.756)" opacity="0.1"/>
      <path id="Path_190" data-name="Path 190" d="M195.3,746.121a15.145,15.145,0,0,1-1.693.616l-2.267-3.184a22.5,22.5,0,0,1,.938-3.093C193.726,741.314,194.8,743.441,195.3,746.121Z" transform="translate(914.523 1.504)" opacity="0.1"/>
      <path id="Path_191" data-name="Path 191" d="M175.87,767.088c-.259.056-.532.105-.8.147-16.045,2.435-5.29-6.221-5.29-6.221s.7-.7,1.7-1.756c1.938-2.134,4.849-5.871,5.185-9.327.5-5.2,1.085-10.076,7.221-8.649C189.907,742.7,191.061,764.044,175.87,767.088Z" transform="translate(922.058 1.333)" fill="#6378ff"/>
      <rect id="Rectangle_48" data-name="Rectangle 48" width="30.655" height="8.061" transform="translate(1066.973 808.368)" fill="#d4dfec"/>
      <rect id="Rectangle_49" data-name="Rectangle 49" width="40.052" height="28.129" transform="translate(1062.103 782.17)" fill="#d4dfec"/>
      <rect id="Rectangle_50" data-name="Rectangle 50" width="30.655" height="8.061" transform="translate(1066.973 808.368)" opacity="0.1"/>
      <rect id="Rectangle_51" data-name="Rectangle 51" width="40.052" height="28.129" transform="translate(1062.103 782.17)" opacity="0.1"/>
      <rect id="Rectangle_52" data-name="Rectangle 52" width="30.655" height="8.061" transform="translate(1068.988 808.368)" fill="#d4dfec"/>
      <path id="Path_192" data-name="Path 192" d="M161.818,764.51c.7,2.407,1.036,4.059,1.036,4.059l-4.786,2.1s-1.043-.5-2.547-1.441C157.4,766.854,159.508,765.063,161.818,764.51Z" transform="translate(925.279 -5.717)" opacity="0.1"/>
      <path id="Path_193" data-name="Path 193" d="M175.87,774.91c-.259.056-.532.1-.8.147-16.045,2.435-5.29-6.22-5.29-6.22s.7-.7,1.7-1.756A10.625,10.625,0,0,1,175.87,774.91Z" transform="translate(922.058 -6.489)" opacity="0.1"/>
      <path id="Path_194" data-name="Path 194" d="M142.72,789.832s8.984-32.187,21.586-22.258-5.129,25.19-5.129,25.19Z" transform="translate(929.123 -6.066)" fill="#6378ff"/>
      <circle id="Ellipse_16" data-name="Ellipse 16" cx="1.008" cy="1.008" r="1.008" transform="translate(1075.369 747.485)" opacity="0.1"/>
      <circle id="Ellipse_17" data-name="Ellipse 17" cx="1.008" cy="1.008" r="1.008" transform="translate(1075.285 752.187)" opacity="0.1"/>
      <circle id="Ellipse_18" data-name="Ellipse 18" cx="1.008" cy="1.008" r="1.008" transform="translate(1104.513 748.409)" opacity="0.1"/>
      <circle id="Ellipse_19" data-name="Ellipse 19" cx="1.008" cy="1.008" r="1.008" transform="translate(1081.002 772.514)" opacity="0.1"/>
      <circle id="Ellipse_20" data-name="Ellipse 20" cx="1.008" cy="1.008" r="1.008" transform="translate(1102.413 756.218)" opacity="0.1"/>
      <circle id="Ellipse_21" data-name="Ellipse 21" cx="1.008" cy="1.008" r="1.008" transform="translate(1092.001 766.636)" opacity="0.1"/>
      <circle id="Ellipse_22" data-name="Ellipse 22" cx="1.008" cy="1.008" r="1.008" transform="translate(1078.812 749.5)" opacity="0.1"/>
      <circle id="Ellipse_23" data-name="Ellipse 23" cx="1.008" cy="1.008" r="1.008" transform="translate(1101.742 751.432)" opacity="0.1"/>
      <circle id="Ellipse_24" data-name="Ellipse 24" cx="1.008" cy="1.008" r="1.008" transform="translate(1098.299 759.24)" opacity="0.1"/>
      <circle id="Ellipse_25" data-name="Ellipse 25" cx="1.008" cy="1.008" r="1.008" transform="translate(1087.719 771.758)" opacity="0.1"/>
      <circle id="Ellipse_26" data-name="Ellipse 26" cx="1.008" cy="1.008" r="1.008" transform="translate(1085.536 766.804)" opacity="0.1"/>
      <circle id="Ellipse_27" data-name="Ellipse 27" cx="1.008" cy="1.008" r="1.008" transform="translate(1080.323 755.63)" opacity="0.1"/>
      <rect id="Rectangle_53" data-name="Rectangle 53" width="30.655" height="2.946" transform="translate(1068.988 808.368)" opacity="0.1"/>
      <rect id="Rectangle_54" data-name="Rectangle 54" width="40.052" height="28.129" transform="translate(1064.118 782.17)" fill="#d4dfec"/>
      <circle id="Ellipse_28" data-name="Ellipse 28" cx="1.008" cy="1.008" r="1.008" transform="translate(1089.063 776.292)" opacity="0.1"/>
      <circle id="Ellipse_29" data-name="Ellipse 29" cx="1.008" cy="1.008" r="1.008" transform="translate(1083.017 777.552)" opacity="0.1"/>
      <circle id="Ellipse_30" data-name="Ellipse 30" cx="7.319" cy="7.319" r="7.319" transform="translate(1105.476 219.772)" fill="#5dafff" opacity="0.1"/>
      <circle id="Ellipse_31" data-name="Ellipse 31" cx="9.796" cy="9.796" r="9.796" transform="translate(1737.948 505.697)" fill="#6c63ff" opacity="0.1"/>
      <circle id="Ellipse_32" data-name="Ellipse 32" cx="7.151" cy="7.151" r="7.151" transform="translate(1759.478 487.35)" fill="#6c63ff" opacity="0.1"/>
      <ellipse id="Ellipse_33" data-name="Ellipse 33" cx="8" cy="9.5" rx="8" ry="9.5" transform="translate(1142 208)" fill="#5dafff" opacity="0.1"/>
      <ellipse id="Ellipse_34" data-name="Ellipse 34" cx="9.5" cy="7.5" rx="9.5" ry="7.5" transform="translate(1079 237)" fill="#5dafff" opacity="0.1"/>
      <path id="Path_247" data-name="Path 247" d="M17.391-5.115C29.817-5.115,45,8.059,45,18S34.952,39.234,22.526,39.234,0,27.941,0,18,4.964-5.115,17.391-5.115Z" transform="translate(951 305)" fill="#5dafff" opacity="0.1"/>
    </g>
    <path id="Path_252" data-name="Path 252" d="M54.418-4.07C86.451-4.07,116,7.475,116,18.965c0,7.859-30.246,18.271-30.246,18.271S68.123,39.768,58,39.768c-32.033,0-58-9.314-58-20.8S22.385-4.07,54.418-4.07Z" transform="translate(1079.616 1144.406)" fill="#63b6ff" opacity="0.1"/>
    <path id="Path_253" data-name="Path 253" d="M31.261-13.073C49.3-13.073,63.918.141,63.918,6.61c0,4.425-18.809,5.615-18.809,5.615s-8.149,6.1-13.848,6.1C13.226,18.323-5.487,3.986-5.487-2.483S13.226-13.073,31.261-13.073Z" transform="translate(1395.284 1282.541)" fill="#63b6ff" opacity="0.1"/>
  </g>
</svg>
