<svg xmlns="http://www.w3.org/2000/svg" width="48.989" height="48.194" viewBox="0 0 48.989 48.194">
  <g id="cam" transform="translate(0 -2.411)">
    <path id="Path_279" data-name="Path 279" d="M64.4,21.139a1.734,1.734,0,0,0-.8-1.06L34.012,2.651a1.733,1.733,0,0,0-2.374.614L22.924,18.058a1.734,1.734,0,0,0,.614,2.375L53.125,37.86a1.733,1.733,0,0,0,2.374-.614l8.714-14.793A1.735,1.735,0,0,0,64.4,21.139ZM53.378,30.066a1.733,1.733,0,1,1,.508-1.226A1.746,1.746,0,0,1,53.378,30.066Z" transform="translate(-18.943 0)" fill="#f6f6f6"/>
    <path id="Path_280" data-name="Path 280" d="M11.252,22.858l1.345.792,4.665-7.92-1.345-.792a1.734,1.734,0,0,0-2.374.614l-2.9,4.931a1.734,1.734,0,0,0,.614,2.374Z" transform="translate(-8.683 -10.26)" fill="#f6f6f6"/>
    <path id="Path_281" data-name="Path 281" d="M247.491,139.129a1.733,1.733,0,0,0-.8-1.06l-1.345-.792-7.57,12.851,1.345.792a1.734,1.734,0,0,0,2.375-.614l5.809-9.862A1.733,1.733,0,0,0,247.491,139.129Z" transform="translate(-198.558 -112.62)" fill="#f6f6f6"/>
    <path id="Path_282" data-name="Path 282" d="M26.36,193.8v-11.81a1.923,1.923,0,0,0-.853-1.492l-7.486-4.409c-.469-.276-.853-.057-.853.487v9.767H1.734A1.734,1.734,0,0,0,0,188.082V193.8a1.734,1.734,0,0,0,1.734,1.734H24.626A1.734,1.734,0,0,0,26.36,193.8Z" transform="translate(0 -144.934)" fill="#f6f6f6"/>
  </g>
</svg>
