<svg xmlns="http://www.w3.org/2000/svg" viewBox="0 0 230.89 51.26"><defs><style>.cls-1{isolation:isolate;}.cls-2{fill:#fff;}</style></defs><title>3-ani</title><g id="Layer_2" data-name="Layer 2"><g id="Layer_1-2" data-name="Layer 1"><g class="cls-1"><path class="cls-2" d="M34.12,29.36a12.47,12.47,0,0,1,2.37,7.7,12.8,12.8,0,0,1-2.23,7.53,14.29,14.29,0,0,1-6.43,4.93,25.19,25.19,0,0,1-9.73,1.74,28.8,28.8,0,0,1-8.83-1.35A22.69,22.69,0,0,1,2,46.15a4.92,4.92,0,0,1-1.53-1.7A4.7,4.7,0,0,1,0,42.32a4.85,4.85,0,0,1,1.06-3.16,3.2,3.2,0,0,1,2.56-1.32,4.81,4.81,0,0,1,1.56.25A10.05,10.05,0,0,1,7,39a49,49,0,0,0,5.39,2.7,14.23,14.23,0,0,0,5.33.92c2.89,0,5-.53,6.32-1.6a6,6,0,0,0,2-5q0-3.34-2.06-4.83t-6.61-1.49H13.14a3.6,3.6,0,0,1-2.92-1.28,4.61,4.61,0,0,1-1.06-3,4.5,4.5,0,0,1,1.06-3,3.57,3.57,0,0,1,2.92-1.28h3c2.88,0,5-.5,6.42-1.49A5.29,5.29,0,0,0,24.64,15a6.08,6.08,0,0,0-1.78-4.65,7,7,0,0,0-5-1.67,13,13,0,0,0-4.9.92,41.46,41.46,0,0,0-5.25,2.7A9.41,9.41,0,0,1,6,13.17a4.56,4.56,0,0,1-1.56.25,3.2,3.2,0,0,1-2.55-1.31A4.87,4.87,0,0,1,.78,9a4.61,4.61,0,0,1,.46-2.17A5,5,0,0,1,2.77,5.11,22.1,22.1,0,0,1,9.9,1.35,27.31,27.31,0,0,1,18.39,0a22.07,22.07,0,0,1,8.87,1.67,13.33,13.33,0,0,1,5.9,4.72,12.42,12.42,0,0,1,2.06,7.1,12,12,0,0,1-2.1,7.06,11.69,11.69,0,0,1-5.79,4.37A12.55,12.55,0,0,1,34.12,29.36Z"/><path class="cls-2" d="M136.32,46.22a4.27,4.27,0,0,1-1.6,3.37A5.38,5.38,0,0,1,131.06,51a4.76,4.76,0,0,1-2.55-.75A4.68,4.68,0,0,1,126.66,48l-3.76-8.38H98.83L95.07,48a4.79,4.79,0,0,1-1.81,2.23,4.72,4.72,0,0,1-2.59.75A5.54,5.54,0,0,1,87,49.59a4.24,4.24,0,0,1-1.63-3.37A5.68,5.68,0,0,1,85.91,44L105.08,3.69a5.57,5.57,0,0,1,2.34-2.59,6.68,6.68,0,0,1,3.34-.89,6.55,6.55,0,0,1,3.41.93,6.24,6.24,0,0,1,2.41,2.55L135.75,44A5.68,5.68,0,0,1,136.32,46.22Zm-17.18-15L110.9,12.78l-8.31,18.46Z"/><path class="cls-2" d="M196.42,1.81a5.48,5.48,0,0,1,1.45,3.94V45.58a5.55,5.55,0,0,1-1.45,4,5,5,0,0,1-3.8,1.53,5.11,5.11,0,0,1-4.12-1.85L164.72,18.82V45.58a5.69,5.69,0,0,1-1.39,4,4.76,4.76,0,0,1-3.72,1.53,4.9,4.9,0,0,1-3.77-1.53,5.66,5.66,0,0,1-1.42-4V5.75a5.48,5.48,0,0,1,1.46-3.94,5,5,0,0,1,3.8-1.53,4.79,4.79,0,0,1,4,1.85l23.79,30.25V5.75a5.54,5.54,0,0,1,1.42-3.94A4.81,4.81,0,0,1,192.62.28,5,5,0,0,1,196.42,1.81Z"/><path class="cls-2" d="M221.31,49.63a5.44,5.44,0,0,1-1.5-4.05V5.75a5.33,5.33,0,0,1,1.5-4,6.2,6.2,0,0,1,8.09,0,5.36,5.36,0,0,1,1.49,4V45.58a5.73,5.73,0,0,1-9.58,4.05Z"/></g></g></g></svg>