<svg xmlns="http://www.w3.org/2000/svg" viewBox="0 0 271.43 51.33"><defs><style>.cls-1{isolation:isolate;}.cls-2{fill:#fff;}</style></defs><title>Asset 1</title><g id="Layer_2" data-name="Layer 2"><g id="Layer_1-2" data-name="Layer 1"><g class="cls-1"><path class="cls-2" d="M34.12,29.36a12.47,12.47,0,0,1,2.37,7.7,12.8,12.8,0,0,1-2.23,7.53,14.29,14.29,0,0,1-6.43,4.93,25.19,25.19,0,0,1-9.73,1.74,28.8,28.8,0,0,1-8.83-1.35A22.69,22.69,0,0,1,2,46.15a4.92,4.92,0,0,1-1.53-1.7A4.7,4.7,0,0,1,0,42.32a4.85,4.85,0,0,1,1.06-3.16,3.2,3.2,0,0,1,2.56-1.32,4.81,4.81,0,0,1,1.56.25A10.05,10.05,0,0,1,7,39a49,49,0,0,0,5.39,2.7,14.23,14.23,0,0,0,5.33.92c2.89,0,5-.53,6.32-1.6a6,6,0,0,0,2-5q0-3.34-2.06-4.83t-6.61-1.49H13.14a3.6,3.6,0,0,1-2.92-1.28,4.61,4.61,0,0,1-1.06-3,4.5,4.5,0,0,1,1.06-3,3.57,3.57,0,0,1,2.92-1.28h3c2.88,0,5-.5,6.42-1.49A5.29,5.29,0,0,0,24.64,15a6.08,6.08,0,0,0-1.78-4.65,7,7,0,0,0-5-1.67,13,13,0,0,0-4.9.92,41.46,41.46,0,0,0-5.25,2.7A9.41,9.41,0,0,1,6,13.17a4.56,4.56,0,0,1-1.56.25,3.2,3.2,0,0,1-2.55-1.31A4.87,4.87,0,0,1,.78,9a4.61,4.61,0,0,1,.46-2.17A5,5,0,0,1,2.77,5.11,22.1,22.1,0,0,1,9.9,1.35,27.31,27.31,0,0,1,18.39,0a22.07,22.07,0,0,1,8.87,1.67,13.33,13.33,0,0,1,5.9,4.72,12.42,12.42,0,0,1,2.06,7.1,12,12,0,0,1-2.1,7.06,11.69,11.69,0,0,1-5.79,4.37A12.55,12.55,0,0,1,34.12,29.36Z"/><path class="cls-2" d="M51.72,44.73q-4.78-6.6-4.79-19.1t4.79-19Q56.52,0,65.6,0T79.48,6.6q4.8,6.6,4.8,19t-4.8,19.1q-4.78,6.6-13.88,6.6T51.72,44.73Zm19.88-6q1.89-4.12,1.88-13.14T71.6,12.5a6.25,6.25,0,0,0-6-4.05q-4.11,0-6,4.08t-1.88,13.1q0,9,1.88,13.14t6,4.11Q69.72,42.88,71.6,38.77Z"/><path class="cls-2" d="M155.27,43a4,4,0,0,1,1.28,3.26,4.08,4.08,0,0,1-1.28,3.34,6.12,6.12,0,0,1-4,1.06H122a4.75,4.75,0,0,1-3.52-1.31,4.44,4.44,0,0,1-1.31-3.3,6.6,6.6,0,0,1,1.42-4L142.21,9.37H122.47a6.12,6.12,0,0,1-4-1.06A4,4,0,0,1,117.22,5,4.12,4.12,0,0,1,118.5,1.7a6.12,6.12,0,0,1,4-1.06h28.26A4.79,4.79,0,0,1,154.25,2a4.51,4.51,0,0,1,1.31,3.3,6.62,6.62,0,0,1-1.35,4L130.5,42h20.8A6.11,6.11,0,0,1,155.27,43Z"/><path class="cls-2" d="M168.41,49.63a5.48,5.48,0,0,1-1.49-4.05V5.75a5.36,5.36,0,0,1,1.49-4,6.2,6.2,0,0,1,8.09,0,5.32,5.32,0,0,1,1.49,4V45.58a5.73,5.73,0,0,1-9.58,4.05Z"/><path class="cls-2" d="M193.26,49.35a5.19,5.19,0,0,1-1.35-3.84V5.75a5.36,5.36,0,0,1,1.49-4,6.2,6.2,0,0,1,8.09,0,5.33,5.33,0,0,1,1.5,4V41.68h18.17c3.46,0,5.18,1.51,5.18,4.54s-1.72,4.47-5.18,4.47H197.09A5.18,5.18,0,0,1,193.26,49.35Z"/><path class="cls-2" d="M237.21,49.35a5.19,5.19,0,0,1-1.35-3.84V5.82A5.19,5.19,0,0,1,237.21,2,5.15,5.15,0,0,1,241,.64h25.14q5.25,0,5.25,4.26t-5.25,4.33H246.65V21h18.11Q270,21,270,25.28t-5.25,4.26H246.65V42.1h19.53c3.5,0,5.25,1.45,5.25,4.33s-1.75,4.26-5.25,4.26H241A5.15,5.15,0,0,1,237.21,49.35Z"/></g></g></g></svg>