<?xml version="1.0" encoding="utf-8"?>
<!-- Generator: Adobe Illustrator 23.0.0, SVG Export Plug-In . SVG Version: 6.00 Build 0)  -->
<svg version="1.1" id="Layer_1" xmlns="http://www.w3.org/2000/svg" xmlns:xlink="http://www.w3.org/1999/xlink" x="0px" y="0px"
	 viewBox="0 0 282 97" style="enable-background:new 0 0 282 97;" xml:space="preserve">
<style type="text/css">
	.st0{enable-background:new    ;}
	.st1{fill:#FFFFFF;}
</style>
<g class="st0">
	<path class="st1" d="M36.4,48.7c1.6,2.1,2.4,4.7,2.4,7.7c0,2.9-0.7,5.4-2.2,7.5c-1.5,2.1-3.6,3.8-6.4,4.9c-2.8,1.2-6,1.7-9.7,1.7
		c-3.1,0-6-0.5-8.8-1.3c-2.8-0.9-5.2-2.2-7.3-3.8c-0.7-0.5-1.2-1.1-1.5-1.7c-0.3-0.6-0.5-1.3-0.5-2.1c0-1.2,0.4-2.3,1.1-3.2
		s1.6-1.3,2.6-1.3c0.6,0,1.1,0.1,1.6,0.2c0.5,0.2,1.1,0.5,1.8,0.9c2.1,1.2,3.9,2.1,5.4,2.7c1.5,0.6,3.3,0.9,5.3,0.9
		c2.9,0,5-0.5,6.3-1.6c1.3-1.1,2-2.7,2-5c0-2.2-0.7-3.8-2.1-4.8c-1.4-1-3.6-1.5-6.6-1.5h-4.2c-1.2,0-2.2-0.4-2.9-1.3
		c-0.7-0.9-1.1-1.9-1.1-3.1c0-1.1,0.4-2.1,1.1-3c0.7-0.9,1.7-1.3,2.9-1.3h3c2.9,0,5-0.5,6.4-1.5c1.4-1,2.1-2.5,2.1-4.6
		c0-2-0.6-3.5-1.8-4.7c-1.2-1.1-2.8-1.7-5-1.7c-1.8,0-3.4,0.3-4.9,0.9c-1.5,0.6-3.3,1.5-5.3,2.7c-0.7,0.4-1.3,0.7-1.8,0.9
		c-0.5,0.2-1,0.2-1.6,0.2c-1,0-1.8-0.4-2.6-1.3c-0.7-0.9-1.1-1.9-1.1-3.2c0-0.9,0.2-1.6,0.5-2.2c0.3-0.6,0.8-1.1,1.5-1.7
		c2-1.6,4.4-2.9,7.1-3.8c2.8-0.9,5.6-1.3,8.5-1.3c3.4,0,6.3,0.6,8.9,1.7c2.6,1.1,4.5,2.7,5.9,4.7c1.4,2,2.1,4.4,2.1,7.1
		s-0.7,5.1-2.1,7.1c-1.4,2-3.3,3.5-5.8,4.4C32.5,45.1,34.8,46.6,36.4,48.7z"/>
	<path class="st1" d="M54,64c-3.2-4.4-4.8-10.8-4.8-19.1c0-8.3,1.6-14.6,4.8-19c3.2-4.4,7.8-6.6,13.9-6.6c6.1,0,10.7,2.2,13.9,6.6
		c3.2,4.4,4.8,10.7,4.8,19c0,8.3-1.6,14.7-4.8,19.1c-3.2,4.4-7.8,6.6-13.9,6.6C61.8,70.6,57.2,68.4,54,64z M73.9,58.1
		c1.3-2.7,1.9-7.1,1.9-13.1c0-6.1-0.6-10.4-1.9-13.1c-1.3-2.7-3.3-4-6-4c-2.7,0-4.7,1.4-6,4.1c-1.3,2.7-1.9,7.1-1.9,13.1
		c0,6,0.6,10.4,1.9,13.1c1.3,2.7,3.3,4.1,6,4.1C70.6,62.2,72.6,60.8,73.9,58.1z"/>
	<path class="st1" d="M157.5,62.3c0.9,0.7,1.3,1.8,1.3,3.3c0,1.5-0.4,2.6-1.3,3.3s-2.2,1.1-4,1.1h-29.3c-1.5,0-2.6-0.4-3.5-1.3
		c-0.9-0.9-1.3-2-1.3-3.3c0-1.4,0.5-2.7,1.4-4l23.6-32.7h-19.7c-1.8,0-3.1-0.4-4-1.1s-1.3-1.8-1.3-3.3c0-1.5,0.4-2.6,1.3-3.3
		s2.2-1.1,4-1.1H153c1.5,0,2.6,0.4,3.5,1.3c0.9,0.9,1.3,2,1.3,3.3c0,1.4-0.5,2.7-1.3,4l-23.7,32.7h20.8
		C155.4,61.3,156.7,61.6,157.5,62.3z"/>
	<path class="st1" d="M170.7,68.9c-1-1-1.5-2.3-1.5-4V25.1c0-1.7,0.5-3,1.5-4s2.3-1.5,4-1.5c1.7,0,3.1,0.5,4,1.5s1.5,2.3,1.5,4v39.8
		c0,1.7-0.5,3.1-1.5,4c-1,1-2.3,1.5-4,1.5C173,70.4,171.7,69.9,170.7,68.9z"/>
	<path class="st1" d="M195.5,68.7c-0.9-0.9-1.3-2.2-1.3-3.8V25.1c0-1.7,0.5-3,1.5-4s2.3-1.5,4-1.5c1.7,0,3.1,0.5,4,1.5
		c1,1,1.5,2.3,1.5,4V61h18.2c3.5,0,5.2,1.5,5.2,4.5c0,3-1.7,4.5-5.2,4.5h-24.1C197.7,70,196.4,69.6,195.5,68.7z"/>
	<path class="st1" d="M239.5,68.7c-0.9-0.9-1.3-2.2-1.3-3.8V25.1c0-1.7,0.4-2.9,1.3-3.8c0.9-0.9,2.2-1.3,3.8-1.3h25.1
		c3.5,0,5.3,1.4,5.3,4.3c0,2.9-1.8,4.3-5.3,4.3h-19.5v11.7H267c3.5,0,5.3,1.4,5.3,4.3c0,2.8-1.8,4.3-5.3,4.3h-18.1v12.6h19.5
		c3.5,0,5.3,1.4,5.3,4.3c0,2.8-1.8,4.3-5.3,4.3h-25.1C241.7,70,240.4,69.6,239.5,68.7z"/>
</g>
</svg>
