<?xml version="1.0" encoding="utf-8"?>
<!-- Generator: Adobe Illustrator 23.0.0, SVG Export Plug-In . SVG Version: 6.00 Build 0)  -->
<svg version="1.1" id="Layer_1" xmlns="http://www.w3.org/2000/svg" xmlns:xlink="http://www.w3.org/1999/xlink" x="0px" y="0px"
	 viewBox="0 0 282 97" style="enable-background:new 0 0 282 97;" xml:space="preserve">
<style type="text/css">
	.st0{enable-background:new    ;}
	.st1{fill:#FFFFFF;}
</style>
<g class="st0">
	<path class="st1" d="M32.8,57.5c2.3,1.4,4.1,3.3,5.4,5.8c1.3,2.5,2,5.3,2,8.4c0,3.3-0.7,6.2-2.2,8.8c-1.5,2.6-3.5,4.6-6.1,6
		c-2.6,1.4-5.5,2.2-8.8,2.2c-6.5,0-11.5-2.2-15.1-6.5c-3.6-4.3-5.3-10.5-5.3-18.5c0-5.3,0.8-10,2.5-14c1.7-4,4-7.1,7.1-9.2
		c3.1-2.1,6.7-3.2,10.8-3.2c2.7,0,5.4,0.5,8.2,1.3c2.7,0.9,5.1,2.2,7,3.8c0.7,0.5,1.1,1.1,1.5,1.7c0.3,0.6,0.5,1.3,0.5,2.2
		c0,1.2-0.3,2.3-1,3.2c-0.7,0.9-1.5,1.3-2.5,1.3c-0.6,0-1.1-0.1-1.6-0.2c-0.5-0.2-1.1-0.5-1.8-0.9c-1.9-1.1-3.6-2-5.1-2.7
		c-1.5-0.6-3-1-4.6-1c-2.9,0-5.3,1.3-7,4c-1.7,2.7-2.7,6.5-2.9,11.4c1.1-1.8,2.6-3.2,4.6-4.3c2-1.1,4.2-1.6,6.7-1.6
		C27.9,55.5,30.5,56.2,32.8,57.5z M27.7,77.8c1.3-1.5,2-3.4,2-5.8c0-2.4-0.7-4.3-2-5.8c-1.3-1.5-3.1-2.2-5.4-2.2
		c-2.2,0-4,0.7-5.4,2.2c-1.4,1.5-2.1,3.4-2.1,5.8c0,2.4,0.7,4.3,2.1,5.8c1.4,1.5,3.2,2.2,5.4,2.2C24.6,80,26.4,79.3,27.7,77.8z"/>
	<path class="st1" d="M54,82c-3.2-4.4-4.8-10.8-4.8-19.1c0-8.3,1.6-14.6,4.8-19c3.2-4.4,7.8-6.6,13.9-6.6c6.1,0,10.7,2.2,13.9,6.6
		c3.2,4.4,4.8,10.7,4.8,19c0,8.3-1.6,14.7-4.8,19.1c-3.2,4.4-7.8,6.6-13.9,6.6C61.8,88.6,57.2,86.4,54,82z M73.9,76.1
		c1.3-2.7,1.9-7.1,1.9-13.1c0-6.1-0.6-10.4-1.9-13.1c-1.3-2.7-3.3-4-6-4c-2.7,0-4.7,1.4-6,4.1c-1.3,2.7-1.9,7.1-1.9,13.1
		c0,6,0.6,10.4,1.9,13.1c1.3,2.7,3.3,4.1,6,4.1C70.6,80.2,72.6,78.8,73.9,76.1z"/>
	<path class="st1" d="M157.5,80.3c0.9,0.7,1.3,1.8,1.3,3.3c0,1.5-0.4,2.6-1.3,3.3s-2.2,1.1-4,1.1h-29.3c-1.5,0-2.6-0.4-3.5-1.3
		c-0.9-0.9-1.3-2-1.3-3.3c0-1.4,0.5-2.7,1.4-4l23.6-32.7h-19.7c-1.8,0-3.1-0.4-4-1.1s-1.3-1.8-1.3-3.3c0-1.5,0.4-2.6,1.3-3.3
		s2.2-1.1,4-1.1H153c1.5,0,2.6,0.4,3.5,1.3c0.9,0.9,1.3,2,1.3,3.3c0,1.4-0.5,2.7-1.3,4l-23.7,32.7h20.8
		C155.4,79.3,156.7,79.6,157.5,80.3z"/>
	<path class="st1" d="M170.7,86.9c-1-1-1.5-2.3-1.5-4V43.1c0-1.7,0.5-3,1.5-4s2.3-1.5,4-1.5c1.7,0,3.1,0.5,4,1.5s1.5,2.3,1.5,4v39.8
		c0,1.7-0.5,3.1-1.5,4c-1,1-2.3,1.5-4,1.5C173,88.4,171.7,87.9,170.7,86.9z"/>
	<path class="st1" d="M195.5,86.7c-0.9-0.9-1.3-2.2-1.3-3.8V43.1c0-1.7,0.5-3,1.5-4s2.3-1.5,4-1.5c1.7,0,3.1,0.5,4,1.5
		c1,1,1.5,2.3,1.5,4V79h18.2c3.5,0,5.2,1.5,5.2,4.5c0,3-1.7,4.5-5.2,4.5h-24.1C197.7,88,196.4,87.6,195.5,86.7z"/>
	<path class="st1" d="M239.5,86.7c-0.9-0.9-1.3-2.2-1.3-3.8V43.1c0-1.7,0.4-2.9,1.3-3.8c0.9-0.9,2.2-1.3,3.8-1.3h25.1
		c3.5,0,5.3,1.4,5.3,4.3c0,2.9-1.8,4.3-5.3,4.3h-19.5v11.7H267c3.5,0,5.3,1.4,5.3,4.3c0,2.8-1.8,4.3-5.3,4.3h-18.1v12.6h19.5
		c3.5,0,5.3,1.4,5.3,4.3c0,2.8-1.8,4.3-5.3,4.3h-25.1C241.7,88,240.4,87.6,239.5,86.7z"/>
</g>
</svg>
