<svg id="law_1_" data-name="law (1)" xmlns="http://www.w3.org/2000/svg" width="100.257" height="100.257" viewBox="0 0 100.257 100.257">
  <path id="Path_269" data-name="Path 269" d="M173.87,459.812A8.812,8.812,0,0,0,165.058,451H129.812A8.812,8.812,0,0,0,121,459.812v3.133h52.87Z" transform="translate(-97.306 -362.688)" fill="#fff"/>
  <path id="Path_270" data-name="Path 270" d="M94.382,23.694V17.819H58.4a8.8,8.8,0,0,0-5.333-5.333V0H47.191V12.486a8.8,8.8,0,0,0-5.333,5.333H5.874v5.874h7.344L0,56A14.7,14.7,0,0,0,14.686,70.689H20.56A14.7,14.7,0,0,0,35.247,56L21.969,23.694H41.858a8.8,8.8,0,0,0,5.333,5.333V71.011A14.713,14.713,0,0,0,35.74,82.438H64.517A14.713,14.713,0,0,0,53.066,71.011V29.027A8.8,8.8,0,0,0,58.4,23.694h19.83L65.01,56A14.7,14.7,0,0,0,79.7,70.689h5.874A14.7,14.7,0,0,0,100.257,56L86.979,23.694ZM27.9,53.066H7.344L17.623,28.392Zm65.01,0H72.354L82.634,28.392Z" fill="#fff"/>
</svg>
