<svg xmlns="http://www.w3.org/2000/svg" width="66.898" height="71.526" viewBox="0 0 66.898 71.526">
  <g id="strategy" transform="translate(-16.566)">
    <path id="Path_291" data-name="Path 291" d="M81.3,6.724a2.168,2.168,0,0,0,2.165-2.165V2.165A2.168,2.168,0,0,0,81.3,0H18.731a2.168,2.168,0,0,0-2.165,2.165V4.559a2.168,2.168,0,0,0,2.165,2.165h.149v6.114a1.048,1.048,0,1,0,2.1,0V6.724H79.054V48.6H20.976V17.029a1.048,1.048,0,0,0-2.1,0V48.6h-.149a2.168,2.168,0,0,0-2.165,2.165V53.16a2.168,2.168,0,0,0,2.165,2.165h6.758L21.657,68.715a2.205,2.205,0,0,0,2.12,2.812h4.536a2.214,2.214,0,0,0,2.12-1.6L31.3,66.9H45.5v2.424a2.207,2.207,0,0,0,2.2,2.2h4.629a2.207,2.207,0,0,0,2.2-2.2V66.9h14.2l.867,3.03a2.214,2.214,0,0,0,2.12,1.6h4.536a2.205,2.205,0,0,0,2.12-2.812L74.54,55.326H81.3a2.168,2.168,0,0,0,2.165-2.165V50.767A2.168,2.168,0,0,0,81.3,48.6h-.149V6.724ZM28.313,69.431H23.777a.109.109,0,0,1-.105-.14l3.989-13.939h4.764l-4.006,14a.11.11,0,0,1-.105.079Zm24.126-.109a.11.11,0,0,1-.109.109H47.7a.11.11,0,0,1-.109-.109V66.9h4.847ZM31.9,64.8l.725-2.533H67.4L68.13,64.8Zm20.539-9.449v4.821H47.591V55.353Zm23.9,14.035a.1.1,0,0,1-.087.044H71.717a.11.11,0,0,1-.105-.079l-4.006-14h4.764l3.989,13.939a.1.1,0,0,1-.018.1Zm-9.535-9.214H54.534V55.326H65.418Zm14.563-9.406V53.16a.07.07,0,0,1-.07.07H40.837a1.048,1.048,0,1,0,0,2.1H45.5v4.848H33.225l1.387-4.848h2.033a1.048,1.048,0,1,0,0-2.1H18.731a.07.07,0,0,1-.07-.07V50.767a.07.07,0,0,1,.07-.07H81.3A.07.07,0,0,1,81.368,50.767ZM18.731,4.629a.07.07,0,0,1-.07-.07V2.165a.07.07,0,0,1,.07-.07H81.3a.07.07,0,0,1,.07.07V4.559a.07.07,0,0,1-.07.07Z" fill="#5dafff"/>
    <path id="Path_292" data-name="Path 292" d="M115.967,285a3.362,3.362,0,1,0,3.362-3.362A3.366,3.366,0,0,0,115.967,285Zm3.362-1.267A1.267,1.267,0,1,1,118.063,285,1.268,1.268,0,0,1,119.329,283.729Z" transform="translate(-85.515 -242.289)" fill="#5dafff"/>
    <path id="Path_293" data-name="Path 293" d="M351.262,73.577a3.362,3.362,0,1,0-3.362-3.362A3.366,3.366,0,0,0,351.262,73.577Zm0-4.629A1.267,1.267,0,1,1,350,70.215,1.268,1.268,0,0,1,351.262,68.948Z" transform="translate(-285.047 -57.514)" fill="#5dafff"/>
    <path id="Path_294" data-name="Path 294" d="M132.533,235.3a1.048,1.048,0,0,0,2.1,0v-2.314a1.048,1.048,0,1,0-2.1,0Z" transform="translate(-99.766 -199.532)" fill="#5dafff"/>
    <path id="Path_295" data-name="Path 295" d="M133.581,186.644a1.048,1.048,0,0,0,1.048-1.048v-2.314a1.048,1.048,0,0,0-2.1,0V185.6A1.048,1.048,0,0,0,133.581,186.644Z" transform="translate(-99.766 -156.776)" fill="#5dafff"/>
    <path id="Path_296" data-name="Path 296" d="M116.273,122.385a1.048,1.048,0,0,0,1.482,0l1.573-1.573,1.573,1.573a1.048,1.048,0,0,0,1.482-1.482l-1.573-1.573,1.573-1.573a1.048,1.048,0,1,0-1.482-1.482l-1.573,1.573-1.573-1.573a1.048,1.048,0,1,0-1.482,1.482l1.573,1.573-1.573,1.573A1.047,1.047,0,0,0,116.273,122.385Z" transform="translate(-85.514 -99.767)" fill="#5dafff"/>
    <path id="Path_297" data-name="Path 297" d="M221.785,223.957a1.048,1.048,0,0,0-1.482,0l-1.573,1.573-1.573-1.573a1.048,1.048,0,0,0-1.482,1.482l1.573,1.574-1.573,1.573a1.048,1.048,0,0,0,1.482,1.482l1.573-1.573,1.573,1.573a1.048,1.048,0,0,0,1.482-1.482l-1.573-1.573,1.573-1.574A1.048,1.048,0,0,0,221.785,223.957Z" transform="translate(-171.029 -192.406)" fill="#5dafff"/>
    <path id="Path_298" data-name="Path 298" d="M354.318,223.957a1.048,1.048,0,0,0-1.482,0l-1.573,1.573-1.573-1.573a1.048,1.048,0,0,0-1.482,1.482l1.573,1.574-1.573,1.573a1.048,1.048,0,0,0,1.482,1.482l1.573-1.573,1.573,1.573a1.048,1.048,0,0,0,1.482-1.482l-1.573-1.573,1.573-1.574A1.048,1.048,0,0,0,354.318,223.957Z" transform="translate(-285.047 -192.406)" fill="#5dafff"/>
    <path id="Path_299" data-name="Path 299" d="M166.715,139.136a1.048,1.048,0,0,0,0,2.1h27.772a1.048,1.048,0,0,0,1.048-1.048v-4.469l.526.526a1.048,1.048,0,0,0,1.482-1.482l-2.314-2.314a1.048,1.048,0,0,0-1.482,0l-2.315,2.314a1.048,1.048,0,0,0,1.482,1.482l.526-.526v3.421H166.715Z" transform="translate(-128.272 -113.679)" fill="#5dafff"/>
  </g>
</svg>
