<svg xmlns="http://www.w3.org/2000/svg" width="72.38" height="91.857" viewBox="0 0 72.38 91.857">
  <g id="_2825613" data-name="2825613" transform="translate(-73.334 -6.136)">
    <path id="Path_218" data-name="Path 218" d="M156.693,30.755h-35.1a1.673,1.673,0,0,0-1.773,1.551v3.648H104.725a1.673,1.673,0,0,0-1.773,1.551v83.557a1.673,1.673,0,0,0,1.773,1.551h68.833a1.673,1.673,0,0,0,1.773-1.551V91.633a1.789,1.789,0,0,0-3.547,0V119.51H106.5V39.055h13.318V42.7a1.673,1.673,0,0,0,1.773,1.551h35.1a1.673,1.673,0,0,0,1.773-1.551V39.055h13.318V85.429a1.789,1.789,0,0,0,3.547,0V37.5a1.673,1.673,0,0,0-1.773-1.551H158.467V32.306A1.673,1.673,0,0,0,156.693,30.755ZM154.92,41.149H123.364V33.857H154.92v7.292Z" transform="translate(-29.618 -24.619)" fill="#5dafff"/>
    <path id="Path_219" data-name="Path 219" d="M170.975,122.208a4.258,4.258,0,0,0-4.253-4.253h-9.946a4.258,4.258,0,0,0-4.253,4.253v9.946a4.258,4.258,0,0,0,4.253,4.253h9.946a4.258,4.258,0,0,0,4.253-4.253Zm-2.993,9.946a1.262,1.262,0,0,1-1.26,1.26h-9.946a1.261,1.261,0,0,1-1.26-1.26v-9.946a1.262,1.262,0,0,1,1.26-1.26h9.946a1.261,1.261,0,0,1,1.26,1.26Z" transform="translate(-66.674 -94.036)" fill="#5dafff"/>
    <path id="Path_220" data-name="Path 220" d="M184.3,148.266l-2.244,2.417-.489-.489a1.5,1.5,0,0,0-2.116,2.116l1.587,1.587a1.5,1.5,0,0,0,1.058.438h.028a1.5,1.5,0,0,0,1.069-.478l3.3-3.555a1.5,1.5,0,1,0-2.193-2.037Z" transform="translate(-87.279 -117.674)" fill="#5dafff"/>
    <path id="Path_221" data-name="Path 221" d="M270.977,129.244h7.114a1.5,1.5,0,1,0,0-2.993h-7.114a1.5,1.5,0,0,0,0,2.993Z" transform="translate(-155.549 -100.722)" fill="#5dafff"/>
    <path id="Path_222" data-name="Path 222" d="M270.977,190.136h7.114a1.5,1.5,0,1,0,0-2.993h-7.114a1.5,1.5,0,0,0,0,2.993Z" transform="translate(-155.549 -148.777)" fill="#5dafff"/>
    <path id="Path_223" data-name="Path 223" d="M286.739,156.7H270.977a1.5,1.5,0,1,0,0,2.993h15.761a1.5,1.5,0,0,0,0-2.993Z" transform="translate(-151.614 -124.75)" fill="#5dafff"/>
    <path id="Path_224" data-name="Path 224" d="M170.975,234.93a4.258,4.258,0,0,0-4.253-4.253h-9.946a4.258,4.258,0,0,0-4.253,4.253v9.946a4.258,4.258,0,0,0,4.253,4.253h9.946a4.258,4.258,0,0,0,4.253-4.253Zm-2.993,9.946a1.262,1.262,0,0,1-1.26,1.26h-9.946a1.261,1.261,0,0,1-1.26-1.26V234.93a1.262,1.262,0,0,1,1.26-1.26h9.946a1.261,1.261,0,0,1,1.26,1.26Z" transform="translate(-66.674 -182.592)" fill="#5dafff"/>
    <path id="Path_225" data-name="Path 225" d="M184.3,260.988l-2.244,2.417-.489-.489a1.5,1.5,0,1,0-2.116,2.116l1.587,1.587a1.5,1.5,0,0,0,1.058.438h.028a1.5,1.5,0,0,0,1.069-.478l3.3-3.555a1.5,1.5,0,0,0-2.193-2.037Z" transform="translate(-87.279 -206.556)" fill="#5dafff"/>
    <path id="Path_226" data-name="Path 226" d="M270.977,241.965h7.114a1.5,1.5,0,1,0,0-2.993h-7.114a1.5,1.5,0,0,0,0,2.993Z" transform="translate(-155.549 -189.679)" fill="#5dafff"/>
    <path id="Path_227" data-name="Path 227" d="M270.977,302.857h7.114a1.5,1.5,0,1,0,0-2.993h-7.114a1.5,1.5,0,0,0,0,2.993Z" transform="translate(-155.549 -237.734)" fill="#5dafff"/>
    <path id="Path_228" data-name="Path 228" d="M286.739,269.418H270.977a1.5,1.5,0,1,0,0,2.993h15.761a1.5,1.5,0,0,0,0-2.993Z" transform="translate(-151.614 -213.706)" fill="#5dafff"/>
    <path id="Path_229" data-name="Path 229" d="M166.721,343.4h-9.946a4.258,4.258,0,0,0-4.253,4.253V357.6a4.258,4.258,0,0,0,4.253,4.253h9.946a4.258,4.258,0,0,0,4.253-4.253v-9.946A4.258,4.258,0,0,0,166.721,343.4Zm1.26,14.2a1.262,1.262,0,0,1-1.26,1.26h-9.946a1.262,1.262,0,0,1-1.26-1.26v-9.946a1.262,1.262,0,0,1,1.26-1.26h9.946a1.261,1.261,0,0,1,1.26,1.26Z" transform="translate(-66.674 -271.662)" fill="#5dafff"/>
    <path id="Path_230" data-name="Path 230" d="M184.3,373.709l-2.244,2.417-.489-.489a1.5,1.5,0,0,0-2.116,2.116l1.587,1.587a1.5,1.5,0,0,0,1.058.438h.028a1.5,1.5,0,0,0,1.069-.478l3.3-3.555a1.5,1.5,0,0,0-2.193-2.037Z" transform="translate(-87.279 -293.296)" fill="#5dafff"/>
    <path id="Path_231" data-name="Path 231" d="M270.977,354.686h7.114a1.5,1.5,0,1,0,0-2.993h-7.114a1.5,1.5,0,0,0,0,2.993Z" transform="translate(-155.549 -278.636)" fill="#5dafff"/>
    <path id="Path_232" data-name="Path 232" d="M270.977,412.585a1.5,1.5,0,1,0,0,2.993h7.113a1.5,1.5,0,1,0,0-2.993Z" transform="translate(-155.549 -327.045)" fill="#5dafff"/>
    <path id="Path_233" data-name="Path 233" d="M288.235,383.635a1.5,1.5,0,0,0-1.5-1.5H270.977a1.5,1.5,0,1,0,0,2.993h15.761A1.5,1.5,0,0,0,288.235,383.635Z" transform="translate(-151.614 -302.663)" fill="#5dafff"/>
  </g>
</svg>
