<svg xmlns="http://www.w3.org/2000/svg" width="164" height="164" viewBox="0 0 164 164">
  <g id="Group_65" data-name="Group 65" transform="translate(-1325 -2563)">
    <circle id="Ellipse_47" data-name="Ellipse 47" cx="82" cy="82" r="82" transform="translate(1325 2563)" fill="#afc1fb"/>
    <g id="cam" transform="translate(1388.099 2616.654)">
      <path id="Path_279" data-name="Path 279" d="M62.61,20.336a1.66,1.66,0,0,0-.765-1.015L33.527,2.641a1.659,1.659,0,0,0-2.272.588l-8.34,14.159a1.66,1.66,0,0,0,.588,2.273L51.82,36.341a1.659,1.659,0,0,0,2.273-.588l8.34-14.159A1.661,1.661,0,0,0,62.61,20.336ZM52.063,28.881a1.659,1.659,0,1,1,.487-1.174A1.671,1.671,0,0,1,52.063,28.881Z" transform="translate(-19.103 0)" fill="#f6f6f6"/>
      <path id="Path_280" data-name="Path 280" d="M11.216,22.508l1.287.758,4.465-7.58-1.287-.758a1.66,1.66,0,0,0-2.273.588l-2.78,4.72a1.659,1.659,0,0,0,.588,2.273Z" transform="translate(-8.757 -10.347)" fill="#f6f6f6"/>
      <path id="Path_281" data-name="Path 281" d="M247.075,139.05a1.659,1.659,0,0,0-.765-1.015l-1.287-.758-7.245,12.3,1.287.758a1.66,1.66,0,0,0,2.273-.588l5.56-9.44A1.659,1.659,0,0,0,247.075,139.05Z" transform="translate(-200.238 -113.574)" fill="#f6f6f6"/>
      <path id="Path_282" data-name="Path 282" d="M25.231,193.04v-11.3a1.841,1.841,0,0,0-.816-1.428l-7.165-4.221c-.449-.264-.816-.054-.816.467V185.9H1.66A1.66,1.66,0,0,0,0,187.563v5.478a1.66,1.66,0,0,0,1.66,1.66H23.571A1.66,1.66,0,0,0,25.231,193.04Z" transform="translate(0 -146.161)" fill="#f6f6f6"/>
    </g>
  </g>
</svg>
