<svg xmlns="http://www.w3.org/2000/svg" width="107.75" height="106" viewBox="0 0 107.75 106">
  <g id="cam" transform="translate(0 -2.411)">
    <path id="Path_279" data-name="Path 279" d="M114.431,43.6a3.814,3.814,0,0,0-1.757-2.332L47.6,2.94A3.812,3.812,0,0,0,42.378,4.29L23.212,36.827a3.815,3.815,0,0,0,1.351,5.223L89.637,80.381a3.812,3.812,0,0,0,5.222-1.351l19.166-32.537A3.816,3.816,0,0,0,114.431,43.6ZM90.194,63.238a3.811,3.811,0,1,1,1.118-2.7A3.841,3.841,0,0,1,90.194,63.238Z" transform="translate(-14.455)" fill="#f6f6f6"/>
    <path id="Path_280" data-name="Path 280" d="M12.277,32.645l2.957,1.742,10.26-17.419-2.957-1.743a3.815,3.815,0,0,0-5.222,1.351L10.926,27.423a3.813,3.813,0,0,0,1.351,5.222Z" transform="translate(-6.626 -7.829)" fill="#f6f6f6"/>
    <path id="Path_281" data-name="Path 281" d="M259.142,141.351a3.812,3.812,0,0,0-1.757-2.331l-2.958-1.743-16.649,28.264,2.958,1.742a3.815,3.815,0,0,0,5.223-1.351l12.777-21.692A3.812,3.812,0,0,0,259.142,141.351Z" transform="translate(-151.514 -85.938)" fill="#f6f6f6"/>
    <path id="Path_282" data-name="Path 282" d="M57.978,215.192V189.216a4.23,4.23,0,0,0-1.876-3.281l-16.465-9.7c-1.032-.608-1.876-.125-1.876,1.072V198.79H3.814A3.815,3.815,0,0,0,0,202.6v12.587a3.815,3.815,0,0,0,3.814,3.814H54.164A3.814,3.814,0,0,0,57.978,215.192Z" transform="translate(0 -110.595)" fill="#f6f6f6"/>
  </g>
</svg>
