<svg id="Group_35" data-name="Group 35" xmlns="http://www.w3.org/2000/svg" width="90.861" height="91.993" viewBox="0 0 90.861 91.993">
  <g id="Group_34" data-name="Group 34">
    <path id="Path_203" data-name="Path 203" d="M30.095,53.186a26.655,26.655,0,0,0,12.076-3.075.058.058,0,0,1,.051,0c1.9.9,5.554,2.337,8.735,1.916a2.193,2.193,0,0,0,1.416-3.556,21.725,21.725,0,0,1-2.682-4.244.066.066,0,0,1,.019-.062,26.567,26.567,0,0,0,.666-34.329,1.348,1.348,0,1,0-2.091,1.7,23.872,23.872,0,0,1-.6,30.846,2.749,2.749,0,0,0-.425,3.013A24.757,24.757,0,0,0,49.687,49.4a16.958,16.958,0,0,1-6.314-1.734,2.765,2.765,0,0,0-2.464.058,23.7,23.7,0,0,1-27.774-4.086A23.843,23.843,0,0,1,43.974,7.406a1.348,1.348,0,1,0,1.609-2.163,26.586,26.586,0,0,0-42.429,21.7,26.835,26.835,0,0,0,26.6,26.246Z" transform="translate(-3.151 0)" fill="#5dafff"/>
    <path id="Path_204" data-name="Path 204" d="M197.343,126.169a4.764,4.764,0,1,0,4.764-4.764A4.769,4.769,0,0,0,197.343,126.169Zm6.831,0a2.068,2.068,0,1,1-2.068-2.068A2.07,2.07,0,0,1,204.174,126.169Z" transform="translate(-162.444 -99.587)" fill="#5dafff"/>
    <path id="Path_205" data-name="Path 205" d="M124.623,126.169a4.764,4.764,0,1,0,4.764-4.764A4.769,4.769,0,0,0,124.623,126.169Zm6.832,0a2.068,2.068,0,1,1-2.068-2.068A2.07,2.07,0,0,1,131.455,126.169Z" transform="translate(-102.793 -99.587)" fill="#5dafff"/>
    <path id="Path_206" data-name="Path 206" d="M51.9,126.169a4.764,4.764,0,1,0,4.764-4.764A4.769,4.769,0,0,0,51.9,126.169Zm6.832,0a2.068,2.068,0,1,1-2.068-2.068A2.07,2.07,0,0,1,58.736,126.169Z" transform="translate(-43.142 -99.587)" fill="#5dafff"/>
    <path id="Path_207" data-name="Path 207" d="M190.627,51.586a1.349,1.349,0,0,0-1.482,1.2,51.481,51.481,0,0,1-1.95,9.294c-3.876,12.91-9.911,23.772-17.936,32.286a69.487,69.487,0,0,1-7.277,6.683q-1.335,1.06-2.719,2.054-2.856,2.052-5.9,3.823c-5.206,3.031-11.051,4.346-15.637,3.516q-1.121-.2-2.163-.5c3.008-2.247,5.659-4.533,8.569-7.158,3.313-2.992,6.214-5.764,8.867-8.474l.01-.012.012-.012,1.565-1.678a86.156,86.156,0,0,0,21.667-33.513l.847-2.418c2.445-7.074,4.692-14.58,6.689-22.342a19.781,19.781,0,0,1,3.979,6.125,20.084,20.084,0,0,1,1.33,4.982,1.348,1.348,0,0,0,2.67-.372,22.782,22.782,0,0,0-1.513-5.651q-.268-.64-.571-1.264a24.173,24.173,0,0,0-7.8-8.894c-3.241-2.392-7.532-4.23-11.493-2.493a8.005,8.005,0,0,0-3.277,2.683,10.294,10.294,0,0,0-1.352,2.565c-.079.215-2.735,8.622-3.732,12.77-.777,3.236-.135,5.6,2.02,7.439a11.373,11.373,0,0,0,2.27,1.472c1.907.967,3.9,1.786,5.887,2.588l.818.33,1.1.416-.408,1.164A83.479,83.479,0,0,1,152.7,90.684l-.053.054-.663.71-1.409-1.387a57.668,57.668,0,0,0-4.452-4.346c-3.6-2.834-6.655-2.9-10.2-.222a100.5,100.5,0,0,0-10.568,8.974c-3.983,4-3.929,8.2.159,12.489a20.069,20.069,0,0,0,4.813,3.715l-.005.005a20.488,20.488,0,0,0,1.85.909c.026.011.053.02.079.029a23.261,23.261,0,0,0,5,1.478,19.018,19.018,0,0,0,3.385.293,28.63,28.63,0,0,0,14.089-4.132q3.175-1.849,6.164-4,1.5-1.081,2.949-2.236a74.061,74.061,0,0,0,16.525-18.808q1.376-2.224,2.6-4.539a93.442,93.442,0,0,0,6.821-16.82,54.16,54.16,0,0,0,2.049-9.785,1.348,1.348,0,0,0-1.2-1.482Zm-16.6,2.515c-1.753-.684-3.456-1.379-5.156-2.17a13.152,13.152,0,0,1-3.067-1.76c-1.351-1.153-1.684-2.532-1.149-4.759.943-3.92,3.5-12.036,3.646-12.483a7.618,7.618,0,0,1,.994-1.892,5.354,5.354,0,0,1,2.183-1.8c3.475-1.523,7.351.987,10.016,3.027l.041.031c-1.944,7.7-4.136,15.15-6.526,22.188-.321-.122-.655-.25-.981-.377Zm-42.48,54.165s0,.007,0,.01a17.39,17.39,0,0,1-4.08-3.181c-3.088-3.236-3.145-5.765-.2-8.726a96.47,96.47,0,0,1,10.282-8.724c2.541-1.92,4.284-1.872,6.908.19,1.352,1.063,5.66,5.558,5.66,5.558-2.352,2.363-4.911,4.789-7.786,7.385a107.936,107.936,0,0,1-9.772,8.021C132.21,108.633,131.874,108.453,131.542,108.267Z" transform="translate(-100.973 -21.392)" fill="#5dafff"/>
    <path id="Path_238" data-name="Path 238" d="M190.627,51.586a1.349,1.349,0,0,0-1.482,1.2,51.481,51.481,0,0,1-1.95,9.294c-3.876,12.91-9.911,23.772-17.936,32.286a69.487,69.487,0,0,1-7.277,6.683q-1.335,1.06-2.719,2.054-2.856,2.052-5.9,3.823c-5.206,3.031-11.051,4.346-15.637,3.516q-1.121-.2-2.163-.5c3.008-2.247,5.659-4.533,8.569-7.158,3.313-2.992,6.214-5.764,8.867-8.474l.01-.012.012-.012,1.565-1.678a86.156,86.156,0,0,0,21.667-33.513l.847-2.418c2.445-7.074,4.692-14.58,6.689-22.342a19.781,19.781,0,0,1,3.979,6.125,20.084,20.084,0,0,1,1.33,4.982,1.348,1.348,0,0,0,2.67-.372,22.782,22.782,0,0,0-1.513-5.651q-.268-.64-.571-1.264a24.173,24.173,0,0,0-7.8-8.894c-3.241-2.392-7.532-4.23-11.493-2.493a8.005,8.005,0,0,0-3.277,2.683,10.294,10.294,0,0,0-1.352,2.565c-.079.215-2.735,8.622-3.732,12.77-.777,3.236-.135,5.6,2.02,7.439a11.373,11.373,0,0,0,2.27,1.472c1.907.967,3.9,1.786,5.887,2.588l.818.33,1.1.416-.408,1.164A83.479,83.479,0,0,1,152.7,90.684l-.053.054-.663.71-1.409-1.387a57.668,57.668,0,0,0-4.452-4.346c-3.6-2.834-6.655-2.9-10.2-.222a100.5,100.5,0,0,0-10.568,8.974c-3.983,4-3.929,8.2.159,12.489a20.069,20.069,0,0,0,4.813,3.715l-.005.005a20.488,20.488,0,0,0,1.85.909c.026.011.053.02.079.029a23.261,23.261,0,0,0,5,1.478,19.018,19.018,0,0,0,3.385.293,28.63,28.63,0,0,0,14.089-4.132q3.175-1.849,6.164-4,1.5-1.081,2.949-2.236a74.061,74.061,0,0,0,16.525-18.808q1.376-2.224,2.6-4.539a93.442,93.442,0,0,0,6.821-16.82,54.16,54.16,0,0,0,2.049-9.785,1.348,1.348,0,0,0-1.2-1.482Zm-16.6,2.515c-1.753-.684-3.456-1.379-5.156-2.17a13.152,13.152,0,0,1-3.067-1.76c-1.351-1.153-1.684-2.532-1.149-4.759.943-3.92,3.5-12.036,3.646-12.483a7.618,7.618,0,0,1,.994-1.892,5.354,5.354,0,0,1,2.183-1.8c3.475-1.523,7.351.987,10.016,3.027l.041.031c-1.944,7.7-4.136,15.15-6.526,22.188-.321-.122-.655-.25-.981-.377Zm-42.48,54.165s0,.007,0,.01a17.39,17.39,0,0,1-4.08-3.181c-3.088-3.236-3.145-5.765-.2-8.726a96.47,96.47,0,0,1,10.282-8.724c2.541-1.92,4.284-1.872,6.908.19,1.352,1.063,5.66,5.558,5.66,5.558-2.352,2.363-4.911,4.789-7.786,7.385a107.936,107.936,0,0,1-9.772,8.021C132.21,108.633,131.874,108.453,131.542,108.267Z" transform="translate(-100.973 -21.392)" fill="#5dafff"/>
  </g>
</svg>
