<svg xmlns="http://www.w3.org/2000/svg" width="164" height="164" viewBox="0 0 164 164">
  <g id="Group_64" data-name="Group 64" transform="translate(-774 -2563)">
    <circle id="Ellipse_43" data-name="Ellipse 43" cx="82" cy="82" r="82" transform="translate(774 2563)" fill="#50dcdf"/>
    <g id="emergency" transform="translate(773.618 2617)">
      <path id="Path_271" data-name="Path 271" d="M241,0h2.8V6.735H241Z" transform="translate(-160.105)" fill="#f6f6f6"/>
      <path id="Path_272" data-name="Path 272" d="M0,0H6.735V2.8H0Z" transform="translate(87.731 7.26) rotate(-68.156)" fill="#f6f6f6"/>
      <path id="Path_273" data-name="Path 273" d="M0,0H6.735V2.8H0Z" transform="matrix(0.674, -0.739, 0.739, 0.674, 93.613, 10.52)" fill="#f6f6f6"/>
      <path id="Path_274" data-name="Path 274" d="M0,0H2.8V6.735H0Z" transform="translate(71.757 2.036) rotate(-21.844)" fill="#f6f6f6"/>
      <path id="Path_275" data-name="Path 275" d="M0,0H2.8V6.735H0Z" transform="matrix(0.739, -0.674, 0.674, 0.739, 64.382, 7.432)" fill="#f6f6f6"/>
      <path id="Path_276" data-name="Path 276" d="M120,364h25.431v3.366H120Z" transform="translate(-50.418 -329.967)" fill="#f6f6f6"/>
      <path id="Path_277" data-name="Path 277" d="M116.187,430H89.415A4.445,4.445,0,0,0,87,433.95v3.716h31.6V433.95a4.445,4.445,0,0,0-2.415-3.95Z" transform="translate(-20.504 -389.796)" fill="#f6f6f6"/>
      <path id="Path_278" data-name="Path 278" d="M145.431,132.716a12.716,12.716,0,0,0-25.431,0v7.293h25.431Zm-11.313,3.769h-2.8v-2.8h2.8Zm0-4.737h-2.8v-7.6h2.8Z" transform="translate(-50.418 -108.78)" fill="#f6f6f6"/>
    </g>
  </g>
</svg>
