<svg xmlns="http://www.w3.org/2000/svg" width="79.73" height="106.483" viewBox="0 0 79.73 106.483">
  <g id="emergency" transform="translate(-64.382)">
    <path id="Path_271" data-name="Path 271" d="M241,0h6.239V14.981H241Z" transform="translate(-139.886)" fill="#f6f6f6"/>
    <path id="Path_272" data-name="Path 272" d="M0,0H14.981V6.239H0Z" transform="translate(116.321 16.148) rotate(-68.156)" fill="#f6f6f6"/>
    <path id="Path_273" data-name="Path 273" d="M0,0H14.981V6.239H0Z" transform="matrix(0.674, -0.739, 0.739, 0.674, 129.404, 23.4)" fill="#f6f6f6"/>
    <path id="Path_274" data-name="Path 274" d="M0,0H6.239V14.981H0Z" transform="translate(80.788 4.529) rotate(-21.844)" fill="#f6f6f6"/>
    <path id="Path_275" data-name="Path 275" d="M0,0H6.239V14.981H0Z" transform="matrix(0.739, -0.674, 0.674, 0.739, 64.382, 16.532)" fill="#f6f6f6"/>
    <path id="Path_276" data-name="Path 276" d="M120,364h56.569v7.487H120Z" transform="translate(-44.051 -288.297)" fill="#f6f6f6"/>
    <path id="Path_277" data-name="Path 277" d="M151.923,430H92.373A9.886,9.886,0,0,0,87,438.787v8.267h70.3v-8.267A9.886,9.886,0,0,0,151.923,430Z" transform="translate(-17.914 -340.571)" fill="#f6f6f6"/>
    <path id="Path_278" data-name="Path 278" d="M176.569,148.285a28.285,28.285,0,0,0-56.569,0v16.222h56.569ZM151.4,156.669h-6.239v-6.239H151.4Zm0-10.537h-6.239V129.216H151.4Z" transform="translate(-44.051 -95.043)" fill="#f6f6f6"/>
  </g>
</svg>
