<svg xmlns="http://www.w3.org/2000/svg" width="164" height="164" viewBox="0 0 164 164">
  <g id="Group_63" data-name="Group 63" transform="translate(-217 -2563)">
    <circle id="Ellipse_42" data-name="Ellipse 42" cx="82" cy="82" r="82" transform="translate(217 2563)" fill="#70b8fe"/>
    <g id="law_1_" data-name="law (1)" transform="translate(275 2621)">
      <path id="Path_269" data-name="Path 269" d="M146.024,455.171A4.171,4.171,0,0,0,141.854,451H125.171A4.171,4.171,0,0,0,121,455.171v1.483h25.024Z" transform="translate(-109.785 -409.2)" fill="#f6f6f6"/>
      <path id="Path_270" data-name="Path 270" d="M44.673,11.215V8.434H27.642A4.165,4.165,0,0,0,25.117,5.91V0h-2.78V5.91a4.165,4.165,0,0,0-2.524,2.524H2.78v2.78H6.256L0,26.507a6.959,6.959,0,0,0,6.951,6.951h2.78a6.959,6.959,0,0,0,6.951-6.951L10.4,11.215h9.414a4.165,4.165,0,0,0,2.524,2.524V33.611a6.964,6.964,0,0,0-5.42,5.409H30.538a6.964,6.964,0,0,0-5.42-5.409V13.739a4.165,4.165,0,0,0,2.524-2.524h9.386L30.771,26.507a6.959,6.959,0,0,0,6.951,6.951H40.5a6.959,6.959,0,0,0,6.951-6.951L41.169,11.215Zm-31.466,13.9H3.476L8.341,13.439Zm30.771,0H34.247l4.866-11.679Z" fill="#f6f6f6"/>
    </g>
  </g>
</svg>
