<svg xmlns="http://www.w3.org/2000/svg" width="91.993" height="91.993" viewBox="0 0 91.993 91.993">
  <g id="_883029" data-name="883029" transform="translate(0 0)">
    <g id="Group_29" data-name="Group 29" transform="translate(30.919 7.176)">
      <g id="Group_28" data-name="Group 28">
        <path id="Path_200" data-name="Path 200" d="M218.571,48.324a27,27,0,0,0-32.449-5.1,1.8,1.8,0,1,0,1.745,3.142,23.36,23.36,0,1,1-9.36,9.357,1.8,1.8,0,0,0-3.149-1.732c-.11.2-.306.574-.495.957h0a26.956,26.956,0,1,0,43.707-6.621Z" transform="translate(-172.081 -39.94)" fill="#5dafff"/>
      </g>
    </g>
    <g id="Group_31" data-name="Group 31" transform="translate(0 0)">
      <g id="Group_30" data-name="Group 30">
        <path id="Path_201" data-name="Path 201" d="M82.01,9.983a34.145,34.145,0,0,0-51.8,44.174l-5.6,5.6a5.391,5.391,0,0,0-6.137,1.055L2.635,76.653a8.984,8.984,0,1,0,12.7,12.706L31.183,73.518a5.391,5.391,0,0,0,1.054-6.137l5.6-5.6A34.145,34.145,0,0,0,82.01,9.983ZM28.641,70.976,12.8,86.817a5.39,5.39,0,0,1-7.622-7.623L21.017,63.352a1.8,1.8,0,0,1,2.54,0l5.084,5.084A1.8,1.8,0,0,1,28.641,70.976Zm1.271-6.353L27.37,62.081l5.117-5.116c.4.445.814.882,1.236,1.3s.859.835,1.3,1.237Zm49.557-8.9a30.55,30.55,0,1,1,0-43.2A30.5,30.5,0,0,1,79.469,55.728Z" transform="translate(0 0)" fill="#5dafff"/>
      </g>
    </g>
    <g id="Group_33" data-name="Group 33" transform="translate(38.28 14.54)">
      <g id="Group_32" data-name="Group 32">
        <path id="Path_202" data-name="Path 202" d="M216.164,81.495a.51.51,0,0,0-.043-.047,1.8,1.8,0,0,0-2.543,2.543c.016.016.031.031.047.045a1.8,1.8,0,0,0,2.539-2.541Z" transform="translate(-213.052 -80.922)" fill="#5dafff"/>
      </g>
    </g>
  </g>
</svg>
